<mxfile host="Electron" agent="Mozilla/5.0 (Macintosh; Intel Mac OS X 10_15_7) AppleWebKit/537.36 (KHTML, like Gecko) draw.io/26.2.2 Chrome/134.0.6998.178 Electron/35.1.2 Safari/537.36" version="26.2.2">
  <diagram name="Page-1" id="Ww47XdwIbLsaxMarlvpB">
    <mxGraphModel dx="3721" dy="2189" grid="1" gridSize="10" guides="1" tooltips="1" connect="1" arrows="1" fold="1" page="1" pageScale="1" pageWidth="850" pageHeight="1100" math="0" shadow="0">
      <root>
        <mxCell id="0" />
        <mxCell id="1" parent="0" />
        <mxCell id="_PHVv9r6wHCgCaR1bIUu-36" value="" style="edgeStyle=orthogonalEdgeStyle;rounded=0;orthogonalLoop=1;jettySize=auto;html=1;entryX=1;entryY=0.5;entryDx=0;entryDy=0;" edge="1" parent="1" source="_PHVv9r6wHCgCaR1bIUu-34" target="_PHVv9r6wHCgCaR1bIUu-5">
          <mxGeometry relative="1" as="geometry" />
        </mxCell>
        <mxCell id="_PHVv9r6wHCgCaR1bIUu-4" value="" style="edgeStyle=orthogonalEdgeStyle;rounded=0;orthogonalLoop=1;jettySize=auto;html=1;exitX=0.5;exitY=1;exitDx=0;exitDy=0;" edge="1" parent="1" source="_PHVv9r6wHCgCaR1bIUu-1" target="_PHVv9r6wHCgCaR1bIUu-3">
          <mxGeometry relative="1" as="geometry" />
        </mxCell>
        <mxCell id="_PHVv9r6wHCgCaR1bIUu-6" value="" style="edgeStyle=orthogonalEdgeStyle;rounded=0;orthogonalLoop=1;jettySize=auto;html=1;" edge="1" parent="1" source="_PHVv9r6wHCgCaR1bIUu-1" target="_PHVv9r6wHCgCaR1bIUu-5">
          <mxGeometry relative="1" as="geometry" />
        </mxCell>
        <mxCell id="_PHVv9r6wHCgCaR1bIUu-8" value="" style="edgeStyle=orthogonalEdgeStyle;rounded=0;orthogonalLoop=1;jettySize=auto;html=1;" edge="1" parent="1" source="_PHVv9r6wHCgCaR1bIUu-1" target="_PHVv9r6wHCgCaR1bIUu-7">
          <mxGeometry relative="1" as="geometry" />
        </mxCell>
        <mxCell id="_PHVv9r6wHCgCaR1bIUu-1" value="API" style="rhombus;whiteSpace=wrap;html=1;" vertex="1" parent="1">
          <mxGeometry x="210" y="-10" width="230" height="230" as="geometry" />
        </mxCell>
        <mxCell id="_PHVv9r6wHCgCaR1bIUu-24" value="" style="edgeStyle=orthogonalEdgeStyle;rounded=0;orthogonalLoop=1;jettySize=auto;html=1;" edge="1" parent="1" source="_PHVv9r6wHCgCaR1bIUu-25" target="_PHVv9r6wHCgCaR1bIUu-23">
          <mxGeometry relative="1" as="geometry" />
        </mxCell>
        <mxCell id="_PHVv9r6wHCgCaR1bIUu-2" value="Celery" style="rhombus;whiteSpace=wrap;html=1;" vertex="1" parent="1">
          <mxGeometry x="515" y="-10" width="230" height="230" as="geometry" />
        </mxCell>
        <mxCell id="_PHVv9r6wHCgCaR1bIUu-68" value="" style="edgeStyle=orthogonalEdgeStyle;rounded=0;orthogonalLoop=1;jettySize=auto;html=1;" edge="1" parent="1" source="_PHVv9r6wHCgCaR1bIUu-3" target="_PHVv9r6wHCgCaR1bIUu-67">
          <mxGeometry relative="1" as="geometry" />
        </mxCell>
        <mxCell id="_PHVv9r6wHCgCaR1bIUu-3" value="fetch user data" style="whiteSpace=wrap;html=1;" vertex="1" parent="1">
          <mxGeometry x="-250" y="280" width="120" height="60" as="geometry" />
        </mxCell>
        <mxCell id="_PHVv9r6wHCgCaR1bIUu-11" value="" style="edgeStyle=orthogonalEdgeStyle;rounded=0;orthogonalLoop=1;jettySize=auto;html=1;entryX=0.5;entryY=0;entryDx=0;entryDy=0;" edge="1" parent="1" source="_PHVv9r6wHCgCaR1bIUu-5" target="_PHVv9r6wHCgCaR1bIUu-13">
          <mxGeometry relative="1" as="geometry">
            <mxPoint x="500" y="410" as="targetPoint" />
          </mxGeometry>
        </mxCell>
        <mxCell id="_PHVv9r6wHCgCaR1bIUu-5" value="fetch album data" style="whiteSpace=wrap;html=1;" vertex="1" parent="1">
          <mxGeometry x="380" y="280" width="120" height="60" as="geometry" />
        </mxCell>
        <mxCell id="_PHVv9r6wHCgCaR1bIUu-70" value="" style="edgeStyle=orthogonalEdgeStyle;rounded=0;orthogonalLoop=1;jettySize=auto;html=1;" edge="1" parent="1" source="_PHVv9r6wHCgCaR1bIUu-7" target="_PHVv9r6wHCgCaR1bIUu-69">
          <mxGeometry relative="1" as="geometry" />
        </mxCell>
        <mxCell id="_PHVv9r6wHCgCaR1bIUu-7" value="search album" style="whiteSpace=wrap;html=1;" vertex="1" parent="1">
          <mxGeometry x="170" y="280" width="120" height="60" as="geometry" />
        </mxCell>
        <mxCell id="_PHVv9r6wHCgCaR1bIUu-62" value="" style="edgeStyle=orthogonalEdgeStyle;rounded=0;orthogonalLoop=1;jettySize=auto;html=1;" edge="1" parent="1" source="_PHVv9r6wHCgCaR1bIUu-9" target="_PHVv9r6wHCgCaR1bIUu-61">
          <mxGeometry relative="1" as="geometry" />
        </mxCell>
        <mxCell id="_PHVv9r6wHCgCaR1bIUu-9" value="check services&amp;nbsp;&lt;div&gt;status&lt;/div&gt;" style="whiteSpace=wrap;html=1;" vertex="1" parent="1">
          <mxGeometry x="-40" y="280" width="120" height="60" as="geometry" />
        </mxCell>
        <mxCell id="_PHVv9r6wHCgCaR1bIUu-15" value="" style="edgeStyle=orthogonalEdgeStyle;rounded=0;orthogonalLoop=1;jettySize=auto;html=1;dashed=1;dashPattern=8 8;" edge="1" parent="1" source="_PHVv9r6wHCgCaR1bIUu-13" target="_PHVv9r6wHCgCaR1bIUu-14">
          <mxGeometry relative="1" as="geometry" />
        </mxCell>
        <mxCell id="_PHVv9r6wHCgCaR1bIUu-16" value="No" style="edgeLabel;html=1;align=center;verticalAlign=middle;resizable=0;points=[];" vertex="1" connectable="0" parent="_PHVv9r6wHCgCaR1bIUu-15">
          <mxGeometry x="-0.2315" relative="1" as="geometry">
            <mxPoint as="offset" />
          </mxGeometry>
        </mxCell>
        <mxCell id="_PHVv9r6wHCgCaR1bIUu-18" value="" style="edgeStyle=orthogonalEdgeStyle;rounded=0;orthogonalLoop=1;jettySize=auto;html=1;" edge="1" parent="1" source="_PHVv9r6wHCgCaR1bIUu-13" target="_PHVv9r6wHCgCaR1bIUu-17">
          <mxGeometry relative="1" as="geometry" />
        </mxCell>
        <mxCell id="_PHVv9r6wHCgCaR1bIUu-19" value="Yes" style="edgeLabel;html=1;align=center;verticalAlign=middle;resizable=0;points=[];" vertex="1" connectable="0" parent="_PHVv9r6wHCgCaR1bIUu-18">
          <mxGeometry x="-0.1472" y="-1" relative="1" as="geometry">
            <mxPoint as="offset" />
          </mxGeometry>
        </mxCell>
        <mxCell id="_PHVv9r6wHCgCaR1bIUu-13" value="does album id&amp;nbsp;&lt;div&gt;exist&amp;nbsp;&lt;span style=&quot;background-color: transparent; color: light-dark(rgb(0, 0, 0), rgb(255, 255, 255));&quot;&gt;in albums table&amp;nbsp;&lt;/span&gt;&lt;/div&gt;&lt;div&gt;&lt;span style=&quot;background-color: transparent; color: light-dark(rgb(0, 0, 0), rgb(255, 255, 255));&quot;&gt;in db?&lt;/span&gt;&lt;/div&gt;" style="rhombus;whiteSpace=wrap;html=1;" vertex="1" parent="1">
          <mxGeometry x="370" y="400" width="140" height="140" as="geometry" />
        </mxCell>
        <mxCell id="_PHVv9r6wHCgCaR1bIUu-21" value="" style="edgeStyle=orthogonalEdgeStyle;rounded=0;orthogonalLoop=1;jettySize=auto;html=1;dashed=1;dashPattern=8 8;entryX=1;entryY=0.5;entryDx=0;entryDy=0;" edge="1" parent="1" target="_PHVv9r6wHCgCaR1bIUu-17">
          <mxGeometry relative="1" as="geometry">
            <mxPoint x="630" y="600" as="sourcePoint" />
            <Array as="points">
              <mxPoint x="630" y="630" />
            </Array>
          </mxGeometry>
        </mxCell>
        <mxCell id="_PHVv9r6wHCgCaR1bIUu-30" value="" style="edgeStyle=orthogonalEdgeStyle;rounded=0;orthogonalLoop=1;jettySize=auto;html=1;" edge="1" parent="1" source="_PHVv9r6wHCgCaR1bIUu-14" target="_PHVv9r6wHCgCaR1bIUu-29">
          <mxGeometry relative="1" as="geometry" />
        </mxCell>
        <mxCell id="_PHVv9r6wHCgCaR1bIUu-14" value="fetch album metrics" style="whiteSpace=wrap;html=1;" vertex="1" parent="1">
          <mxGeometry x="570" y="440" width="120" height="60" as="geometry" />
        </mxCell>
        <mxCell id="_PHVv9r6wHCgCaR1bIUu-76" value="" style="edgeStyle=orthogonalEdgeStyle;rounded=0;orthogonalLoop=1;jettySize=auto;html=1;" edge="1" parent="1" source="_PHVv9r6wHCgCaR1bIUu-17" target="_PHVv9r6wHCgCaR1bIUu-75">
          <mxGeometry relative="1" as="geometry" />
        </mxCell>
        <mxCell id="_PHVv9r6wHCgCaR1bIUu-17" value="query data" style="whiteSpace=wrap;html=1;" vertex="1" parent="1">
          <mxGeometry x="380" y="600" width="120" height="60" as="geometry" />
        </mxCell>
        <mxCell id="_PHVv9r6wHCgCaR1bIUu-27" value="" style="edgeStyle=orthogonalEdgeStyle;rounded=0;orthogonalLoop=1;jettySize=auto;html=1;" edge="1" parent="1" source="_PHVv9r6wHCgCaR1bIUu-23" target="_PHVv9r6wHCgCaR1bIUu-14">
          <mxGeometry relative="1" as="geometry" />
        </mxCell>
        <mxCell id="_PHVv9r6wHCgCaR1bIUu-23" value="get album batch" style="whiteSpace=wrap;html=1;" vertex="1" parent="1">
          <mxGeometry x="570" y="350" width="120" height="60" as="geometry" />
        </mxCell>
        <mxCell id="_PHVv9r6wHCgCaR1bIUu-26" value="" style="edgeStyle=orthogonalEdgeStyle;rounded=0;orthogonalLoop=1;jettySize=auto;html=1;" edge="1" parent="1" source="_PHVv9r6wHCgCaR1bIUu-2" target="_PHVv9r6wHCgCaR1bIUu-25">
          <mxGeometry relative="1" as="geometry">
            <mxPoint x="705" y="220" as="sourcePoint" />
            <mxPoint x="705" y="350" as="targetPoint" />
          </mxGeometry>
        </mxCell>
        <mxCell id="_PHVv9r6wHCgCaR1bIUu-25" value="every day at 10pm&amp;nbsp;&lt;div&gt;get all album ids&amp;nbsp;&lt;/div&gt;&lt;div&gt;in db&lt;/div&gt;" style="whiteSpace=wrap;html=1;" vertex="1" parent="1">
          <mxGeometry x="570" y="260" width="120" height="60" as="geometry" />
        </mxCell>
        <mxCell id="_PHVv9r6wHCgCaR1bIUu-28" value="" style="edgeStyle=orthogonalEdgeStyle;rounded=0;orthogonalLoop=1;jettySize=auto;html=1;exitX=0.5;exitY=1;exitDx=0;exitDy=0;entryX=0.5;entryY=0;entryDx=0;entryDy=0;" edge="1" parent="1" source="_PHVv9r6wHCgCaR1bIUu-1" target="_PHVv9r6wHCgCaR1bIUu-9">
          <mxGeometry relative="1" as="geometry">
            <mxPoint x="50" y="115" as="sourcePoint" />
            <mxPoint x="-270" y="290" as="targetPoint" />
          </mxGeometry>
        </mxCell>
        <mxCell id="_PHVv9r6wHCgCaR1bIUu-29" value="upload album metrics to db" style="whiteSpace=wrap;html=1;" vertex="1" parent="1">
          <mxGeometry x="570" y="530" width="120" height="60" as="geometry" />
        </mxCell>
        <mxCell id="_PHVv9r6wHCgCaR1bIUu-33" value="" style="edgeStyle=orthogonalEdgeStyle;rounded=0;orthogonalLoop=1;jettySize=auto;html=1;" edge="1" parent="1" source="_PHVv9r6wHCgCaR1bIUu-31" target="_PHVv9r6wHCgCaR1bIUu-32">
          <mxGeometry relative="1" as="geometry" />
        </mxCell>
        <mxCell id="_PHVv9r6wHCgCaR1bIUu-31" value="Frontend&lt;div&gt;manages all auth via&amp;nbsp;&lt;/div&gt;&lt;div&gt;spotify / supabase:&lt;/div&gt;&lt;div&gt;- sign in&lt;br&gt;- sign up&lt;/div&gt;&lt;div&gt;- sign out&lt;/div&gt;" style="rhombus;whiteSpace=wrap;html=1;" vertex="1" parent="1">
          <mxGeometry x="820" y="-10" width="230" height="230" as="geometry" />
        </mxCell>
        <mxCell id="_PHVv9r6wHCgCaR1bIUu-82" value="" style="edgeStyle=orthogonalEdgeStyle;rounded=0;orthogonalLoop=1;jettySize=auto;html=1;" edge="1" parent="1" source="_PHVv9r6wHCgCaR1bIUu-32" target="_PHVv9r6wHCgCaR1bIUu-81">
          <mxGeometry relative="1" as="geometry" />
        </mxCell>
        <mxCell id="_PHVv9r6wHCgCaR1bIUu-32" value="search albums&amp;nbsp;&lt;div&gt;via api&lt;/div&gt;&lt;div&gt;(home page)&lt;/div&gt;" style="whiteSpace=wrap;html=1;" vertex="1" parent="1">
          <mxGeometry x="970" y="280" width="120" height="60" as="geometry" />
        </mxCell>
        <mxCell id="_PHVv9r6wHCgCaR1bIUu-84" value="" style="edgeStyle=orthogonalEdgeStyle;rounded=0;orthogonalLoop=1;jettySize=auto;html=1;" edge="1" parent="1" source="_PHVv9r6wHCgCaR1bIUu-34" target="_PHVv9r6wHCgCaR1bIUu-83">
          <mxGeometry relative="1" as="geometry" />
        </mxCell>
        <mxCell id="_PHVv9r6wHCgCaR1bIUu-34" value="fetch album details&lt;div&gt;via api&lt;/div&gt;&lt;div&gt;(home page)&lt;/div&gt;" style="whiteSpace=wrap;html=1;" vertex="1" parent="1">
          <mxGeometry x="770" y="280" width="120" height="60" as="geometry" />
        </mxCell>
        <mxCell id="_PHVv9r6wHCgCaR1bIUu-35" value="" style="edgeStyle=orthogonalEdgeStyle;rounded=0;orthogonalLoop=1;jettySize=auto;html=1;entryX=0.5;entryY=0;entryDx=0;entryDy=0;exitX=0.5;exitY=1;exitDx=0;exitDy=0;" edge="1" parent="1" source="_PHVv9r6wHCgCaR1bIUu-31" target="_PHVv9r6wHCgCaR1bIUu-34">
          <mxGeometry relative="1" as="geometry">
            <mxPoint x="945" y="230" as="sourcePoint" />
            <mxPoint x="1040" y="290" as="targetPoint" />
          </mxGeometry>
        </mxCell>
        <mxCell id="_PHVv9r6wHCgCaR1bIUu-88" value="" style="edgeStyle=orthogonalEdgeStyle;rounded=0;orthogonalLoop=1;jettySize=auto;html=1;" edge="1" parent="1" source="_PHVv9r6wHCgCaR1bIUu-37" target="_PHVv9r6wHCgCaR1bIUu-87">
          <mxGeometry relative="1" as="geometry" />
        </mxCell>
        <mxCell id="_PHVv9r6wHCgCaR1bIUu-37" value="get user data&amp;nbsp;&lt;div&gt;via api&lt;/div&gt;&lt;div&gt;(dashboard page)&lt;/div&gt;" style="whiteSpace=wrap;html=1;" vertex="1" parent="1">
          <mxGeometry x="1170" y="280" width="120" height="60" as="geometry" />
        </mxCell>
        <mxCell id="_PHVv9r6wHCgCaR1bIUu-38" value="" style="edgeStyle=orthogonalEdgeStyle;rounded=0;orthogonalLoop=1;jettySize=auto;html=1;entryX=0.5;entryY=0;entryDx=0;entryDy=0;exitX=0.5;exitY=1;exitDx=0;exitDy=0;" edge="1" parent="1" source="_PHVv9r6wHCgCaR1bIUu-31" target="_PHVv9r6wHCgCaR1bIUu-37">
          <mxGeometry relative="1" as="geometry">
            <mxPoint x="945" y="230" as="sourcePoint" />
            <mxPoint x="1040" y="290" as="targetPoint" />
          </mxGeometry>
        </mxCell>
        <mxCell id="_PHVv9r6wHCgCaR1bIUu-39" value="cockroach db:&lt;br&gt;we can do rls on rows with user id for enhanced security" style="shape=cylinder3;whiteSpace=wrap;html=1;boundedLbl=1;backgroundOutline=1;size=15;" vertex="1" parent="1">
          <mxGeometry x="-910" y="60" width="165" height="210" as="geometry" />
        </mxCell>
        <mxCell id="_PHVv9r6wHCgCaR1bIUu-40" value="albums" style="swimlane;fontStyle=0;childLayout=stackLayout;horizontal=1;startSize=30;horizontalStack=0;resizeParent=1;resizeParentMax=0;resizeLast=0;collapsible=1;marginBottom=0;whiteSpace=wrap;html=1;" vertex="1" parent="1">
          <mxGeometry x="-1060" y="340" width="670" height="230" as="geometry" />
        </mxCell>
        <mxCell id="_PHVv9r6wHCgCaR1bIUu-44" value="&lt;span class=&quot;hljs-keyword&quot; style=&quot;box-sizing: border-box; margin: 0px; padding: 0px; font-family: SFMono-Semibold; color: rgb(206, 192, 242); font-size: 14px; font-style: normal; font-variant-ligatures: normal; font-variant-caps: normal; font-weight: 400; letter-spacing: normal; orphans: 2; text-align: start; text-indent: 0px; text-transform: none; widows: 2; word-spacing: 0px; -webkit-text-stroke-width: 0px; white-space: pre; background-color: rgb(12, 22, 40); text-decoration-thickness: initial; text-decoration-style: initial; text-decoration-color: initial;&quot;&gt;CREATE&lt;/span&gt;&lt;span style=&quot;color: rgb(231, 236, 243); font-family: SFMono-Semibold; font-size: 14px; font-style: normal; font-variant-ligatures: normal; font-variant-caps: normal; font-weight: 400; letter-spacing: normal; orphans: 2; text-align: start; text-indent: 0px; text-transform: none; widows: 2; word-spacing: 0px; -webkit-text-stroke-width: 0px; white-space: pre; background-color: rgb(12, 22, 40); text-decoration-thickness: initial; text-decoration-style: initial; text-decoration-color: initial; display: inline !important; float: none;&quot;&gt; &lt;/span&gt;&lt;span class=&quot;hljs-keyword&quot; style=&quot;box-sizing: border-box; margin: 0px; padding: 0px; font-family: SFMono-Semibold; color: rgb(206, 192, 242); font-size: 14px; font-style: normal; font-variant-ligatures: normal; font-variant-caps: normal; font-weight: 400; letter-spacing: normal; orphans: 2; text-align: start; text-indent: 0px; text-transform: none; widows: 2; word-spacing: 0px; -webkit-text-stroke-width: 0px; white-space: pre; background-color: rgb(12, 22, 40); text-decoration-thickness: initial; text-decoration-style: initial; text-decoration-color: initial;&quot;&gt;TABLE&lt;/span&gt;&lt;span style=&quot;color: rgb(231, 236, 243); font-family: SFMono-Semibold; font-size: 14px; font-style: normal; font-variant-ligatures: normal; font-variant-caps: normal; font-weight: 400; letter-spacing: normal; orphans: 2; text-align: start; text-indent: 0px; text-transform: none; widows: 2; word-spacing: 0px; -webkit-text-stroke-width: 0px; white-space: pre; background-color: rgb(12, 22, 40); text-decoration-thickness: initial; text-decoration-style: initial; text-decoration-color: initial; display: inline !important; float: none;&quot;&gt; &lt;/span&gt;&lt;span class=&quot;hljs-built_in&quot; style=&quot;box-sizing: border-box; margin: 0px; padding: 0px; font-family: SFMono-Semibold; color: rgb(255, 165, 59); font-size: 14px; font-style: normal; font-variant-ligatures: normal; font-variant-caps: normal; font-weight: 400; letter-spacing: normal; orphans: 2; text-align: start; text-indent: 0px; text-transform: none; widows: 2; word-spacing: 0px; -webkit-text-stroke-width: 0px; white-space: pre; background-color: rgb(12, 22, 40); text-decoration-thickness: initial; text-decoration-style: initial; text-decoration-color: initial;&quot;&gt;public&lt;/span&gt;&lt;span style=&quot;color: rgb(231, 236, 243); font-family: SFMono-Semibold; font-size: 14px; font-style: normal; font-variant-ligatures: normal; font-variant-caps: normal; font-weight: 400; letter-spacing: normal; orphans: 2; text-align: start; text-indent: 0px; text-transform: none; widows: 2; word-spacing: 0px; -webkit-text-stroke-width: 0px; white-space: pre; background-color: rgb(12, 22, 40); text-decoration-thickness: initial; text-decoration-style: initial; text-decoration-color: initial; display: inline !important; float: none;&quot;&gt;.albums (&#xa;  album_id STRING &lt;/span&gt;&lt;span class=&quot;hljs-keyword&quot; style=&quot;box-sizing: border-box; margin: 0px; padding: 0px; font-family: SFMono-Semibold; color: rgb(206, 192, 242); font-size: 14px; font-style: normal; font-variant-ligatures: normal; font-variant-caps: normal; font-weight: 400; letter-spacing: normal; orphans: 2; text-align: start; text-indent: 0px; text-transform: none; widows: 2; word-spacing: 0px; -webkit-text-stroke-width: 0px; white-space: pre; background-color: rgb(12, 22, 40); text-decoration-thickness: initial; text-decoration-style: initial; text-decoration-color: initial;&quot;&gt;NOT&lt;/span&gt;&lt;span style=&quot;color: rgb(231, 236, 243); font-family: SFMono-Semibold; font-size: 14px; font-style: normal; font-variant-ligatures: normal; font-variant-caps: normal; font-weight: 400; letter-spacing: normal; orphans: 2; text-align: start; text-indent: 0px; text-transform: none; widows: 2; word-spacing: 0px; -webkit-text-stroke-width: 0px; white-space: pre; background-color: rgb(12, 22, 40); text-decoration-thickness: initial; text-decoration-style: initial; text-decoration-color: initial; display: inline !important; float: none;&quot;&gt; &lt;/span&gt;&lt;span class=&quot;hljs-keyword&quot; style=&quot;box-sizing: border-box; margin: 0px; padding: 0px; font-family: SFMono-Semibold; color: rgb(206, 192, 242); font-size: 14px; font-style: normal; font-variant-ligatures: normal; font-variant-caps: normal; font-weight: 400; letter-spacing: normal; orphans: 2; text-align: start; text-indent: 0px; text-transform: none; widows: 2; word-spacing: 0px; -webkit-text-stroke-width: 0px; white-space: pre; background-color: rgb(12, 22, 40); text-decoration-thickness: initial; text-decoration-style: initial; text-decoration-color: initial;&quot;&gt;NULL&lt;/span&gt;&lt;span style=&quot;color: rgb(231, 236, 243); font-family: SFMono-Semibold; font-size: 14px; font-style: normal; font-variant-ligatures: normal; font-variant-caps: normal; font-weight: 400; letter-spacing: normal; orphans: 2; text-align: start; text-indent: 0px; text-transform: none; widows: 2; word-spacing: 0px; -webkit-text-stroke-width: 0px; white-space: pre; background-color: rgb(12, 22, 40); text-decoration-thickness: initial; text-decoration-style: initial; text-decoration-color: initial; display: inline !important; float: none;&quot;&gt;,&#xa;  artist_id STRING &lt;/span&gt;&lt;span class=&quot;hljs-keyword&quot; style=&quot;box-sizing: border-box; margin: 0px; padding: 0px; font-family: SFMono-Semibold; color: rgb(206, 192, 242); font-size: 14px; font-style: normal; font-variant-ligatures: normal; font-variant-caps: normal; font-weight: 400; letter-spacing: normal; orphans: 2; text-align: start; text-indent: 0px; text-transform: none; widows: 2; word-spacing: 0px; -webkit-text-stroke-width: 0px; white-space: pre; background-color: rgb(12, 22, 40); text-decoration-thickness: initial; text-decoration-style: initial; text-decoration-color: initial;&quot;&gt;NULL&lt;/span&gt;&lt;span style=&quot;color: rgb(231, 236, 243); font-family: SFMono-Semibold; font-size: 14px; font-style: normal; font-variant-ligatures: normal; font-variant-caps: normal; font-weight: 400; letter-spacing: normal; orphans: 2; text-align: start; text-indent: 0px; text-transform: none; widows: 2; word-spacing: 0px; -webkit-text-stroke-width: 0px; white-space: pre; background-color: rgb(12, 22, 40); text-decoration-thickness: initial; text-decoration-style: initial; text-decoration-color: initial; display: inline !important; float: none;&quot;&gt;,&#xa;  &lt;/span&gt;&lt;span class=&quot;hljs-type&quot; style=&quot;box-sizing: border-box; margin: 0px; padding: 0px; font-family: SFMono-Semibold; color: rgb(231, 236, 243); font-size: 14px; font-style: normal; font-variant-ligatures: normal; font-variant-caps: normal; font-weight: 400; letter-spacing: normal; orphans: 2; text-align: start; text-indent: 0px; text-transform: none; widows: 2; word-spacing: 0px; -webkit-text-stroke-width: 0px; white-space: pre; background-color: rgb(12, 22, 40); text-decoration-thickness: initial; text-decoration-style: initial; text-decoration-color: initial;&quot;&gt;name&lt;/span&gt;&lt;span style=&quot;color: rgb(231, 236, 243); font-family: SFMono-Semibold; font-size: 14px; font-style: normal; font-variant-ligatures: normal; font-variant-caps: normal; font-weight: 400; letter-spacing: normal; orphans: 2; text-align: start; text-indent: 0px; text-transform: none; widows: 2; word-spacing: 0px; -webkit-text-stroke-width: 0px; white-space: pre; background-color: rgb(12, 22, 40); text-decoration-thickness: initial; text-decoration-style: initial; text-decoration-color: initial; display: inline !important; float: none;&quot;&gt; STRING &lt;/span&gt;&lt;span class=&quot;hljs-keyword&quot; style=&quot;box-sizing: border-box; margin: 0px; padding: 0px; font-family: SFMono-Semibold; color: rgb(206, 192, 242); font-size: 14px; font-style: normal; font-variant-ligatures: normal; font-variant-caps: normal; font-weight: 400; letter-spacing: normal; orphans: 2; text-align: start; text-indent: 0px; text-transform: none; widows: 2; word-spacing: 0px; -webkit-text-stroke-width: 0px; white-space: pre; background-color: rgb(12, 22, 40); text-decoration-thickness: initial; text-decoration-style: initial; text-decoration-color: initial;&quot;&gt;NOT&lt;/span&gt;&lt;span style=&quot;color: rgb(231, 236, 243); font-family: SFMono-Semibold; font-size: 14px; font-style: normal; font-variant-ligatures: normal; font-variant-caps: normal; font-weight: 400; letter-spacing: normal; orphans: 2; text-align: start; text-indent: 0px; text-transform: none; widows: 2; word-spacing: 0px; -webkit-text-stroke-width: 0px; white-space: pre; background-color: rgb(12, 22, 40); text-decoration-thickness: initial; text-decoration-style: initial; text-decoration-color: initial; display: inline !important; float: none;&quot;&gt; &lt;/span&gt;&lt;span class=&quot;hljs-keyword&quot; style=&quot;box-sizing: border-box; margin: 0px; padding: 0px; font-family: SFMono-Semibold; color: rgb(206, 192, 242); font-size: 14px; font-style: normal; font-variant-ligatures: normal; font-variant-caps: normal; font-weight: 400; letter-spacing: normal; orphans: 2; text-align: start; text-indent: 0px; text-transform: none; widows: 2; word-spacing: 0px; -webkit-text-stroke-width: 0px; white-space: pre; background-color: rgb(12, 22, 40); text-decoration-thickness: initial; text-decoration-style: initial; text-decoration-color: initial;&quot;&gt;NULL&lt;/span&gt;&lt;span style=&quot;color: rgb(231, 236, 243); font-family: SFMono-Semibold; font-size: 14px; font-style: normal; font-variant-ligatures: normal; font-variant-caps: normal; font-weight: 400; letter-spacing: normal; orphans: 2; text-align: start; text-indent: 0px; text-transform: none; widows: 2; word-spacing: 0px; -webkit-text-stroke-width: 0px; white-space: pre; background-color: rgb(12, 22, 40); text-decoration-thickness: initial; text-decoration-style: initial; text-decoration-color: initial; display: inline !important; float: none;&quot;&gt;,&#xa;  cover_art STRING &lt;/span&gt;&lt;span class=&quot;hljs-keyword&quot; style=&quot;box-sizing: border-box; margin: 0px; padding: 0px; font-family: SFMono-Semibold; color: rgb(206, 192, 242); font-size: 14px; font-style: normal; font-variant-ligatures: normal; font-variant-caps: normal; font-weight: 400; letter-spacing: normal; orphans: 2; text-align: start; text-indent: 0px; text-transform: none; widows: 2; word-spacing: 0px; -webkit-text-stroke-width: 0px; white-space: pre; background-color: rgb(12, 22, 40); text-decoration-thickness: initial; text-decoration-style: initial; text-decoration-color: initial;&quot;&gt;NULL&lt;/span&gt;&lt;span style=&quot;color: rgb(231, 236, 243); font-family: SFMono-Semibold; font-size: 14px; font-style: normal; font-variant-ligatures: normal; font-variant-caps: normal; font-weight: 400; letter-spacing: normal; orphans: 2; text-align: start; text-indent: 0px; text-transform: none; widows: 2; word-spacing: 0px; -webkit-text-stroke-width: 0px; white-space: pre; background-color: rgb(12, 22, 40); text-decoration-thickness: initial; text-decoration-style: initial; text-decoration-color: initial; display: inline !important; float: none;&quot;&gt;,&#xa;  release_date &lt;/span&gt;&lt;span class=&quot;hljs-type&quot; style=&quot;box-sizing: border-box; margin: 0px; padding: 0px; font-family: SFMono-Semibold; color: rgb(231, 236, 243); font-size: 14px; font-style: normal; font-variant-ligatures: normal; font-variant-caps: normal; font-weight: 400; letter-spacing: normal; orphans: 2; text-align: start; text-indent: 0px; text-transform: none; widows: 2; word-spacing: 0px; -webkit-text-stroke-width: 0px; white-space: pre; background-color: rgb(12, 22, 40); text-decoration-thickness: initial; text-decoration-style: initial; text-decoration-color: initial;&quot;&gt;TIMESTAMP&lt;/span&gt;&lt;span style=&quot;color: rgb(231, 236, 243); font-family: SFMono-Semibold; font-size: 14px; font-style: normal; font-variant-ligatures: normal; font-variant-caps: normal; font-weight: 400; letter-spacing: normal; orphans: 2; text-align: start; text-indent: 0px; text-transform: none; widows: 2; word-spacing: 0px; -webkit-text-stroke-width: 0px; white-space: pre; background-color: rgb(12, 22, 40); text-decoration-thickness: initial; text-decoration-style: initial; text-decoration-color: initial; display: inline !important; float: none;&quot;&gt; &lt;/span&gt;&lt;span class=&quot;hljs-keyword&quot; style=&quot;box-sizing: border-box; margin: 0px; padding: 0px; font-family: SFMono-Semibold; color: rgb(206, 192, 242); font-size: 14px; font-style: normal; font-variant-ligatures: normal; font-variant-caps: normal; font-weight: 400; letter-spacing: normal; orphans: 2; text-align: start; text-indent: 0px; text-transform: none; widows: 2; word-spacing: 0px; -webkit-text-stroke-width: 0px; white-space: pre; background-color: rgb(12, 22, 40); text-decoration-thickness: initial; text-decoration-style: initial; text-decoration-color: initial;&quot;&gt;NOT&lt;/span&gt;&lt;span style=&quot;color: rgb(231, 236, 243); font-family: SFMono-Semibold; font-size: 14px; font-style: normal; font-variant-ligatures: normal; font-variant-caps: normal; font-weight: 400; letter-spacing: normal; orphans: 2; text-align: start; text-indent: 0px; text-transform: none; widows: 2; word-spacing: 0px; -webkit-text-stroke-width: 0px; white-space: pre; background-color: rgb(12, 22, 40); text-decoration-thickness: initial; text-decoration-style: initial; text-decoration-color: initial; display: inline !important; float: none;&quot;&gt; &lt;/span&gt;&lt;span class=&quot;hljs-keyword&quot; style=&quot;box-sizing: border-box; margin: 0px; padding: 0px; font-family: SFMono-Semibold; color: rgb(206, 192, 242); font-size: 14px; font-style: normal; font-variant-ligatures: normal; font-variant-caps: normal; font-weight: 400; letter-spacing: normal; orphans: 2; text-align: start; text-indent: 0px; text-transform: none; widows: 2; word-spacing: 0px; -webkit-text-stroke-width: 0px; white-space: pre; background-color: rgb(12, 22, 40); text-decoration-thickness: initial; text-decoration-style: initial; text-decoration-color: initial;&quot;&gt;NULL&lt;/span&gt;&lt;span style=&quot;color: rgb(231, 236, 243); font-family: SFMono-Semibold; font-size: 14px; font-style: normal; font-variant-ligatures: normal; font-variant-caps: normal; font-weight: 400; letter-spacing: normal; orphans: 2; text-align: start; text-indent: 0px; text-transform: none; widows: 2; word-spacing: 0px; -webkit-text-stroke-width: 0px; white-space: pre; background-color: rgb(12, 22, 40); text-decoration-thickness: initial; text-decoration-style: initial; text-decoration-color: initial; display: inline !important; float: none;&quot;&gt;,&#xa;  created_at &lt;/span&gt;&lt;span class=&quot;hljs-type&quot; style=&quot;box-sizing: border-box; margin: 0px; padding: 0px; font-family: SFMono-Semibold; color: rgb(231, 236, 243); font-size: 14px; font-style: normal; font-variant-ligatures: normal; font-variant-caps: normal; font-weight: 400; letter-spacing: normal; orphans: 2; text-align: start; text-indent: 0px; text-transform: none; widows: 2; word-spacing: 0px; -webkit-text-stroke-width: 0px; white-space: pre; background-color: rgb(12, 22, 40); text-decoration-thickness: initial; text-decoration-style: initial; text-decoration-color: initial;&quot;&gt;TIMESTAMP&lt;/span&gt;&lt;span style=&quot;color: rgb(231, 236, 243); font-family: SFMono-Semibold; font-size: 14px; font-style: normal; font-variant-ligatures: normal; font-variant-caps: normal; font-weight: 400; letter-spacing: normal; orphans: 2; text-align: start; text-indent: 0px; text-transform: none; widows: 2; word-spacing: 0px; -webkit-text-stroke-width: 0px; white-space: pre; background-color: rgb(12, 22, 40); text-decoration-thickness: initial; text-decoration-style: initial; text-decoration-color: initial; display: inline !important; float: none;&quot;&gt; &lt;/span&gt;&lt;span class=&quot;hljs-keyword&quot; style=&quot;box-sizing: border-box; margin: 0px; padding: 0px; font-family: SFMono-Semibold; color: rgb(206, 192, 242); font-size: 14px; font-style: normal; font-variant-ligatures: normal; font-variant-caps: normal; font-weight: 400; letter-spacing: normal; orphans: 2; text-align: start; text-indent: 0px; text-transform: none; widows: 2; word-spacing: 0px; -webkit-text-stroke-width: 0px; white-space: pre; background-color: rgb(12, 22, 40); text-decoration-thickness: initial; text-decoration-style: initial; text-decoration-color: initial;&quot;&gt;NULL&lt;/span&gt;&lt;span style=&quot;color: rgb(231, 236, 243); font-family: SFMono-Semibold; font-size: 14px; font-style: normal; font-variant-ligatures: normal; font-variant-caps: normal; font-weight: 400; letter-spacing: normal; orphans: 2; text-align: start; text-indent: 0px; text-transform: none; widows: 2; word-spacing: 0px; -webkit-text-stroke-width: 0px; white-space: pre; background-color: rgb(12, 22, 40); text-decoration-thickness: initial; text-decoration-style: initial; text-decoration-color: initial; display: inline !important; float: none;&quot;&gt; &lt;/span&gt;&lt;span class=&quot;hljs-keyword&quot; style=&quot;box-sizing: border-box; margin: 0px; padding: 0px; font-family: SFMono-Semibold; color: rgb(206, 192, 242); font-size: 14px; font-style: normal; font-variant-ligatures: normal; font-variant-caps: normal; font-weight: 400; letter-spacing: normal; orphans: 2; text-align: start; text-indent: 0px; text-transform: none; widows: 2; word-spacing: 0px; -webkit-text-stroke-width: 0px; white-space: pre; background-color: rgb(12, 22, 40); text-decoration-thickness: initial; text-decoration-style: initial; text-decoration-color: initial;&quot;&gt;DEFAULT&lt;/span&gt;&lt;span style=&quot;color: rgb(231, 236, 243); font-family: SFMono-Semibold; font-size: 14px; font-style: normal; font-variant-ligatures: normal; font-variant-caps: normal; font-weight: 400; letter-spacing: normal; orphans: 2; text-align: start; text-indent: 0px; text-transform: none; widows: 2; word-spacing: 0px; -webkit-text-stroke-width: 0px; white-space: pre; background-color: rgb(12, 22, 40); text-decoration-thickness: initial; text-decoration-style: initial; text-decoration-color: initial; display: inline !important; float: none;&quot;&gt; now():::&lt;/span&gt;&lt;span class=&quot;hljs-type&quot; style=&quot;box-sizing: border-box; margin: 0px; padding: 0px; font-family: SFMono-Semibold; color: rgb(231, 236, 243); font-size: 14px; font-style: normal; font-variant-ligatures: normal; font-variant-caps: normal; font-weight: 400; letter-spacing: normal; orphans: 2; text-align: start; text-indent: 0px; text-transform: none; widows: 2; word-spacing: 0px; -webkit-text-stroke-width: 0px; white-space: pre; background-color: rgb(12, 22, 40); text-decoration-thickness: initial; text-decoration-style: initial; text-decoration-color: initial;&quot;&gt;TIMESTAMP&lt;/span&gt;&lt;span style=&quot;color: rgb(231, 236, 243); font-family: SFMono-Semibold; font-size: 14px; font-style: normal; font-variant-ligatures: normal; font-variant-caps: normal; font-weight: 400; letter-spacing: normal; orphans: 2; text-align: start; text-indent: 0px; text-transform: none; widows: 2; word-spacing: 0px; -webkit-text-stroke-width: 0px; white-space: pre; background-color: rgb(12, 22, 40); text-decoration-thickness: initial; text-decoration-style: initial; text-decoration-color: initial; display: inline !important; float: none;&quot;&gt;,&#xa;  artist_name STRING &lt;/span&gt;&lt;span class=&quot;hljs-keyword&quot; style=&quot;box-sizing: border-box; margin: 0px; padding: 0px; font-family: SFMono-Semibold; color: rgb(206, 192, 242); font-size: 14px; font-style: normal; font-variant-ligatures: normal; font-variant-caps: normal; font-weight: 400; letter-spacing: normal; orphans: 2; text-align: start; text-indent: 0px; text-transform: none; widows: 2; word-spacing: 0px; -webkit-text-stroke-width: 0px; white-space: pre; background-color: rgb(12, 22, 40); text-decoration-thickness: initial; text-decoration-style: initial; text-decoration-color: initial;&quot;&gt;NULL&lt;/span&gt;&lt;span style=&quot;color: rgb(231, 236, 243); font-family: SFMono-Semibold; font-size: 14px; font-style: normal; font-variant-ligatures: normal; font-variant-caps: normal; font-weight: 400; letter-spacing: normal; orphans: 2; text-align: start; text-indent: 0px; text-transform: none; widows: 2; word-spacing: 0px; -webkit-text-stroke-width: 0px; white-space: pre; background-color: rgb(12, 22, 40); text-decoration-thickness: initial; text-decoration-style: initial; text-decoration-color: initial; display: inline !important; float: none;&quot;&gt;,&#xa;  &lt;/span&gt;&lt;span class=&quot;hljs-keyword&quot; style=&quot;box-sizing: border-box; margin: 0px; padding: 0px; font-family: SFMono-Semibold; color: rgb(206, 192, 242); font-size: 14px; font-style: normal; font-variant-ligatures: normal; font-variant-caps: normal; font-weight: 400; letter-spacing: normal; orphans: 2; text-align: start; text-indent: 0px; text-transform: none; widows: 2; word-spacing: 0px; -webkit-text-stroke-width: 0px; white-space: pre; background-color: rgb(12, 22, 40); text-decoration-thickness: initial; text-decoration-style: initial; text-decoration-color: initial;&quot;&gt;CONSTRAINT&lt;/span&gt;&lt;span style=&quot;color: rgb(231, 236, 243); font-family: SFMono-Semibold; font-size: 14px; font-style: normal; font-variant-ligatures: normal; font-variant-caps: normal; font-weight: 400; letter-spacing: normal; orphans: 2; text-align: start; text-indent: 0px; text-transform: none; widows: 2; word-spacing: 0px; -webkit-text-stroke-width: 0px; white-space: pre; background-color: rgb(12, 22, 40); text-decoration-thickness: initial; text-decoration-style: initial; text-decoration-color: initial; display: inline !important; float: none;&quot;&gt; albums_pkey &lt;/span&gt;&lt;span class=&quot;hljs-keyword&quot; style=&quot;box-sizing: border-box; margin: 0px; padding: 0px; font-family: SFMono-Semibold; color: rgb(206, 192, 242); font-size: 14px; font-style: normal; font-variant-ligatures: normal; font-variant-caps: normal; font-weight: 400; letter-spacing: normal; orphans: 2; text-align: start; text-indent: 0px; text-transform: none; widows: 2; word-spacing: 0px; -webkit-text-stroke-width: 0px; white-space: pre; background-color: rgb(12, 22, 40); text-decoration-thickness: initial; text-decoration-style: initial; text-decoration-color: initial;&quot;&gt;PRIMARY KEY&lt;/span&gt;&lt;span style=&quot;color: rgb(231, 236, 243); font-family: SFMono-Semibold; font-size: 14px; font-style: normal; font-variant-ligatures: normal; font-variant-caps: normal; font-weight: 400; letter-spacing: normal; orphans: 2; text-align: start; text-indent: 0px; text-transform: none; widows: 2; word-spacing: 0px; -webkit-text-stroke-width: 0px; white-space: pre; background-color: rgb(12, 22, 40); text-decoration-thickness: initial; text-decoration-style: initial; text-decoration-color: initial; display: inline !important; float: none;&quot;&gt; (album_id &lt;/span&gt;&lt;span class=&quot;hljs-keyword&quot; style=&quot;box-sizing: border-box; margin: 0px; padding: 0px; font-family: SFMono-Semibold; color: rgb(206, 192, 242); font-size: 14px; font-style: normal; font-variant-ligatures: normal; font-variant-caps: normal; font-weight: 400; letter-spacing: normal; orphans: 2; text-align: start; text-indent: 0px; text-transform: none; widows: 2; word-spacing: 0px; -webkit-text-stroke-width: 0px; white-space: pre; background-color: rgb(12, 22, 40); text-decoration-thickness: initial; text-decoration-style: initial; text-decoration-color: initial;&quot;&gt;ASC&lt;/span&gt;&lt;span style=&quot;color: rgb(231, 236, 243); font-family: SFMono-Semibold; font-size: 14px; font-style: normal; font-variant-ligatures: normal; font-variant-caps: normal; font-weight: 400; letter-spacing: normal; orphans: 2; text-align: start; text-indent: 0px; text-transform: none; widows: 2; word-spacing: 0px; -webkit-text-stroke-width: 0px; white-space: pre; background-color: rgb(12, 22, 40); text-decoration-thickness: initial; text-decoration-style: initial; text-decoration-color: initial; display: inline !important; float: none;&quot;&gt;),&#xa;  INVERTED &lt;/span&gt;&lt;span class=&quot;hljs-keyword&quot; style=&quot;box-sizing: border-box; margin: 0px; padding: 0px; font-family: SFMono-Semibold; color: rgb(206, 192, 242); font-size: 14px; font-style: normal; font-variant-ligatures: normal; font-variant-caps: normal; font-weight: 400; letter-spacing: normal; orphans: 2; text-align: start; text-indent: 0px; text-transform: none; widows: 2; word-spacing: 0px; -webkit-text-stroke-width: 0px; white-space: pre; background-color: rgb(12, 22, 40); text-decoration-thickness: initial; text-decoration-style: initial; text-decoration-color: initial;&quot;&gt;INDEX&lt;/span&gt;&lt;span style=&quot;color: rgb(231, 236, 243); font-family: SFMono-Semibold; font-size: 14px; font-style: normal; font-variant-ligatures: normal; font-variant-caps: normal; font-weight: 400; letter-spacing: normal; orphans: 2; text-align: start; text-indent: 0px; text-transform: none; widows: 2; word-spacing: 0px; -webkit-text-stroke-width: 0px; white-space: pre; background-color: rgb(12, 22, 40); text-decoration-thickness: initial; text-decoration-style: initial; text-decoration-color: initial; display: inline !important; float: none;&quot;&gt; idx_albums_name_search (to_tsvector(&lt;/span&gt;&lt;span class=&quot;hljs-string&quot; style=&quot;box-sizing: border-box; margin: 0px; padding: 0px; font-family: SFMono-Semibold; color: rgb(255, 165, 59); font-size: 14px; font-style: normal; font-variant-ligatures: normal; font-variant-caps: normal; font-weight: 400; letter-spacing: normal; orphans: 2; text-align: start; text-indent: 0px; text-transform: none; widows: 2; word-spacing: 0px; -webkit-text-stroke-width: 0px; white-space: pre; background-color: rgb(12, 22, 40); text-decoration-thickness: initial; text-decoration-style: initial; text-decoration-color: initial;&quot;&gt;&#39;english&#39;&lt;/span&gt;&lt;span style=&quot;color: rgb(231, 236, 243); font-family: SFMono-Semibold; font-size: 14px; font-style: normal; font-variant-ligatures: normal; font-variant-caps: normal; font-weight: 400; letter-spacing: normal; orphans: 2; text-align: start; text-indent: 0px; text-transform: none; widows: 2; word-spacing: 0px; -webkit-text-stroke-width: 0px; white-space: pre; background-color: rgb(12, 22, 40); text-decoration-thickness: initial; text-decoration-style: initial; text-decoration-color: initial; display: inline !important; float: none;&quot;&gt;:::STRING, &lt;/span&gt;&lt;span class=&quot;hljs-type&quot; style=&quot;box-sizing: border-box; margin: 0px; padding: 0px; font-family: SFMono-Semibold; color: rgb(231, 236, 243); font-size: 14px; font-style: normal; font-variant-ligatures: normal; font-variant-caps: normal; font-weight: 400; letter-spacing: normal; orphans: 2; text-align: start; text-indent: 0px; text-transform: none; widows: 2; word-spacing: 0px; -webkit-text-stroke-width: 0px; white-space: pre; background-color: rgb(12, 22, 40); text-decoration-thickness: initial; text-decoration-style: initial; text-decoration-color: initial;&quot;&gt;name&lt;/span&gt;&lt;span style=&quot;color: rgb(231, 236, 243); font-family: SFMono-Semibold; font-size: 14px; font-style: normal; font-variant-ligatures: normal; font-variant-caps: normal; font-weight: 400; letter-spacing: normal; orphans: 2; text-align: start; text-indent: 0px; text-transform: none; widows: 2; word-spacing: 0px; -webkit-text-stroke-width: 0px; white-space: pre; background-color: rgb(12, 22, 40); text-decoration-thickness: initial; text-decoration-style: initial; text-decoration-color: initial; display: inline !important; float: none;&quot;&gt;))&#xa;)&lt;/span&gt;" style="text;whiteSpace=wrap;html=1;" vertex="1" parent="_PHVv9r6wHCgCaR1bIUu-40">
          <mxGeometry y="30" width="670" height="200" as="geometry" />
        </mxCell>
        <mxCell id="_PHVv9r6wHCgCaR1bIUu-45" value="streams" style="swimlane;fontStyle=0;childLayout=stackLayout;horizontal=1;startSize=30;horizontalStack=0;resizeParent=1;resizeParentMax=0;resizeLast=0;collapsible=1;marginBottom=0;whiteSpace=wrap;html=1;" vertex="1" parent="1">
          <mxGeometry x="-1060" y="610" width="670" height="240" as="geometry" />
        </mxCell>
        <mxCell id="_PHVv9r6wHCgCaR1bIUu-46" value="&lt;span style=&quot;box-sizing: border-box; margin: 0px; padding: 0px; font-family: SFMono-Semibold; color: rgb(206, 192, 242); font-size: 14px; white-space: pre; background-color: rgb(12, 22, 40);&quot; class=&quot;hljs-keyword&quot;&gt;CREATE&lt;/span&gt;&lt;span style=&quot;color: rgb(231, 236, 243); font-family: SFMono-Semibold; font-size: 14px; white-space: pre; background-color: rgb(12, 22, 40);&quot;&gt; &lt;/span&gt;&lt;span style=&quot;box-sizing: border-box; margin: 0px; padding: 0px; font-family: SFMono-Semibold; color: rgb(206, 192, 242); font-size: 14px; white-space: pre; background-color: rgb(12, 22, 40);&quot; class=&quot;hljs-keyword&quot;&gt;TABLE&lt;/span&gt;&lt;span style=&quot;color: rgb(231, 236, 243); font-family: SFMono-Semibold; font-size: 14px; white-space: pre; background-color: rgb(12, 22, 40);&quot;&gt; &lt;/span&gt;&lt;span style=&quot;box-sizing: border-box; margin: 0px; padding: 0px; font-family: SFMono-Semibold; color: rgb(255, 165, 59); font-size: 14px; white-space: pre; background-color: rgb(12, 22, 40);&quot; class=&quot;hljs-built_in&quot;&gt;public&lt;/span&gt;&lt;span style=&quot;color: rgb(231, 236, 243); font-family: SFMono-Semibold; font-size: 14px; white-space: pre; background-color: rgb(12, 22, 40);&quot;&gt;.streams (&lt;br/&gt;  stream_id &lt;/span&gt;&lt;span style=&quot;box-sizing: border-box; margin: 0px; padding: 0px; font-family: SFMono-Semibold; color: rgb(231, 236, 243); font-size: 14px; white-space: pre; background-color: rgb(12, 22, 40);&quot; class=&quot;hljs-type&quot;&gt;UUID&lt;/span&gt;&lt;span style=&quot;color: rgb(231, 236, 243); font-family: SFMono-Semibold; font-size: 14px; white-space: pre; background-color: rgb(12, 22, 40);&quot;&gt; &lt;/span&gt;&lt;span style=&quot;box-sizing: border-box; margin: 0px; padding: 0px; font-family: SFMono-Semibold; color: rgb(206, 192, 242); font-size: 14px; white-space: pre; background-color: rgb(12, 22, 40);&quot; class=&quot;hljs-keyword&quot;&gt;NOT&lt;/span&gt;&lt;span style=&quot;color: rgb(231, 236, 243); font-family: SFMono-Semibold; font-size: 14px; white-space: pre; background-color: rgb(12, 22, 40);&quot;&gt; &lt;/span&gt;&lt;span style=&quot;box-sizing: border-box; margin: 0px; padding: 0px; font-family: SFMono-Semibold; color: rgb(206, 192, 242); font-size: 14px; white-space: pre; background-color: rgb(12, 22, 40);&quot; class=&quot;hljs-keyword&quot;&gt;NULL&lt;/span&gt;&lt;span style=&quot;color: rgb(231, 236, 243); font-family: SFMono-Semibold; font-size: 14px; white-space: pre; background-color: rgb(12, 22, 40);&quot;&gt; &lt;/span&gt;&lt;span style=&quot;box-sizing: border-box; margin: 0px; padding: 0px; font-family: SFMono-Semibold; color: rgb(206, 192, 242); font-size: 14px; white-space: pre; background-color: rgb(12, 22, 40);&quot; class=&quot;hljs-keyword&quot;&gt;DEFAULT&lt;/span&gt;&lt;span style=&quot;color: rgb(231, 236, 243); font-family: SFMono-Semibold; font-size: 14px; white-space: pre; background-color: rgb(12, 22, 40);&quot;&gt; gen_random_uuid(),&lt;br/&gt;  track_id STRING &lt;/span&gt;&lt;span style=&quot;box-sizing: border-box; margin: 0px; padding: 0px; font-family: SFMono-Semibold; color: rgb(206, 192, 242); font-size: 14px; white-space: pre; background-color: rgb(12, 22, 40);&quot; class=&quot;hljs-keyword&quot;&gt;NULL&lt;/span&gt;&lt;span style=&quot;color: rgb(231, 236, 243); font-family: SFMono-Semibold; font-size: 14px; white-space: pre; background-color: rgb(12, 22, 40);&quot;&gt;,&lt;br/&gt;  play_count &lt;/span&gt;&lt;span style=&quot;box-sizing: border-box; margin: 0px; padding: 0px; font-family: SFMono-Semibold; color: rgb(231, 236, 243); font-size: 14px; white-space: pre; background-color: rgb(12, 22, 40);&quot; class=&quot;hljs-type&quot;&gt;INT8&lt;/span&gt;&lt;span style=&quot;color: rgb(231, 236, 243); font-family: SFMono-Semibold; font-size: 14px; white-space: pre; background-color: rgb(12, 22, 40);&quot;&gt; &lt;/span&gt;&lt;span style=&quot;box-sizing: border-box; margin: 0px; padding: 0px; font-family: SFMono-Semibold; color: rgb(206, 192, 242); font-size: 14px; white-space: pre; background-color: rgb(12, 22, 40);&quot; class=&quot;hljs-keyword&quot;&gt;NOT&lt;/span&gt;&lt;span style=&quot;color: rgb(231, 236, 243); font-family: SFMono-Semibold; font-size: 14px; white-space: pre; background-color: rgb(12, 22, 40);&quot;&gt; &lt;/span&gt;&lt;span style=&quot;box-sizing: border-box; margin: 0px; padding: 0px; font-family: SFMono-Semibold; color: rgb(206, 192, 242); font-size: 14px; white-space: pre; background-color: rgb(12, 22, 40);&quot; class=&quot;hljs-keyword&quot;&gt;NULL&lt;/span&gt;&lt;span style=&quot;color: rgb(231, 236, 243); font-family: SFMono-Semibold; font-size: 14px; white-space: pre; background-color: rgb(12, 22, 40);&quot;&gt;,&lt;br/&gt;  &quot;timestamp&quot; &lt;/span&gt;&lt;span style=&quot;box-sizing: border-box; margin: 0px; padding: 0px; font-family: SFMono-Semibold; color: rgb(231, 236, 243); font-size: 14px; white-space: pre; background-color: rgb(12, 22, 40);&quot; class=&quot;hljs-type&quot;&gt;TIMESTAMP&lt;/span&gt;&lt;span style=&quot;color: rgb(231, 236, 243); font-family: SFMono-Semibold; font-size: 14px; white-space: pre; background-color: rgb(12, 22, 40);&quot;&gt; &lt;/span&gt;&lt;span style=&quot;box-sizing: border-box; margin: 0px; padding: 0px; font-family: SFMono-Semibold; color: rgb(206, 192, 242); font-size: 14px; white-space: pre; background-color: rgb(12, 22, 40);&quot; class=&quot;hljs-keyword&quot;&gt;NOT&lt;/span&gt;&lt;span style=&quot;color: rgb(231, 236, 243); font-family: SFMono-Semibold; font-size: 14px; white-space: pre; background-color: rgb(12, 22, 40);&quot;&gt; &lt;/span&gt;&lt;span style=&quot;box-sizing: border-box; margin: 0px; padding: 0px; font-family: SFMono-Semibold; color: rgb(206, 192, 242); font-size: 14px; white-space: pre; background-color: rgb(12, 22, 40);&quot; class=&quot;hljs-keyword&quot;&gt;NULL&lt;/span&gt;&lt;span style=&quot;color: rgb(231, 236, 243); font-family: SFMono-Semibold; font-size: 14px; white-space: pre; background-color: rgb(12, 22, 40);&quot;&gt; &lt;/span&gt;&lt;span style=&quot;box-sizing: border-box; margin: 0px; padding: 0px; font-family: SFMono-Semibold; color: rgb(206, 192, 242); font-size: 14px; white-space: pre; background-color: rgb(12, 22, 40);&quot; class=&quot;hljs-keyword&quot;&gt;DEFAULT&lt;/span&gt;&lt;span style=&quot;color: rgb(231, 236, 243); font-family: SFMono-Semibold; font-size: 14px; white-space: pre; background-color: rgb(12, 22, 40);&quot;&gt; now():::&lt;/span&gt;&lt;span style=&quot;box-sizing: border-box; margin: 0px; padding: 0px; font-family: SFMono-Semibold; color: rgb(231, 236, 243); font-size: 14px; white-space: pre; background-color: rgb(12, 22, 40);&quot; class=&quot;hljs-type&quot;&gt;TIMESTAMP&lt;/span&gt;&lt;span style=&quot;color: rgb(231, 236, 243); font-family: SFMono-Semibold; font-size: 14px; white-space: pre; background-color: rgb(12, 22, 40);&quot;&gt;,&lt;br/&gt;  album_id STRING &lt;/span&gt;&lt;span style=&quot;box-sizing: border-box; margin: 0px; padding: 0px; font-family: SFMono-Semibold; color: rgb(206, 192, 242); font-size: 14px; white-space: pre; background-color: rgb(12, 22, 40);&quot; class=&quot;hljs-keyword&quot;&gt;NULL&lt;/span&gt;&lt;span style=&quot;color: rgb(231, 236, 243); font-family: SFMono-Semibold; font-size: 14px; white-space: pre; background-color: rgb(12, 22, 40);&quot;&gt;,&lt;br/&gt;  &lt;/span&gt;&lt;span style=&quot;box-sizing: border-box; margin: 0px; padding: 0px; font-family: SFMono-Semibold; color: rgb(206, 192, 242); font-size: 14px; white-space: pre; background-color: rgb(12, 22, 40);&quot; class=&quot;hljs-keyword&quot;&gt;CONSTRAINT&lt;/span&gt;&lt;span style=&quot;color: rgb(231, 236, 243); font-family: SFMono-Semibold; font-size: 14px; white-space: pre; background-color: rgb(12, 22, 40);&quot;&gt; streams_pkey &lt;/span&gt;&lt;span style=&quot;box-sizing: border-box; margin: 0px; padding: 0px; font-family: SFMono-Semibold; color: rgb(206, 192, 242); font-size: 14px; white-space: pre; background-color: rgb(12, 22, 40);&quot; class=&quot;hljs-keyword&quot;&gt;PRIMARY KEY&lt;/span&gt;&lt;span style=&quot;color: rgb(231, 236, 243); font-family: SFMono-Semibold; font-size: 14px; white-space: pre; background-color: rgb(12, 22, 40);&quot;&gt; (stream_id &lt;/span&gt;&lt;span style=&quot;box-sizing: border-box; margin: 0px; padding: 0px; font-family: SFMono-Semibold; color: rgb(206, 192, 242); font-size: 14px; white-space: pre; background-color: rgb(12, 22, 40);&quot; class=&quot;hljs-keyword&quot;&gt;ASC&lt;/span&gt;&lt;span style=&quot;color: rgb(231, 236, 243); font-family: SFMono-Semibold; font-size: 14px; white-space: pre; background-color: rgb(12, 22, 40);&quot;&gt;),&lt;br/&gt;  &lt;/span&gt;&lt;span style=&quot;box-sizing: border-box; margin: 0px; padding: 0px; font-family: SFMono-Semibold; color: rgb(206, 192, 242); font-size: 14px; white-space: pre; background-color: rgb(12, 22, 40);&quot; class=&quot;hljs-keyword&quot;&gt;CONSTRAINT&lt;/span&gt;&lt;span style=&quot;color: rgb(231, 236, 243); font-family: SFMono-Semibold; font-size: 14px; white-space: pre; background-color: rgb(12, 22, 40);&quot;&gt; streams_track_id_fkey &lt;/span&gt;&lt;span style=&quot;box-sizing: border-box; margin: 0px; padding: 0px; font-family: SFMono-Semibold; color: rgb(206, 192, 242); font-size: 14px; white-space: pre; background-color: rgb(12, 22, 40);&quot; class=&quot;hljs-keyword&quot;&gt;FOREIGN KEY&lt;/span&gt;&lt;span style=&quot;color: rgb(231, 236, 243); font-family: SFMono-Semibold; font-size: 14px; white-space: pre; background-color: rgb(12, 22, 40);&quot;&gt; (track_id) &lt;/span&gt;&lt;span style=&quot;box-sizing: border-box; margin: 0px; padding: 0px; font-family: SFMono-Semibold; color: rgb(206, 192, 242); font-size: 14px; white-space: pre; background-color: rgb(12, 22, 40);&quot; class=&quot;hljs-keyword&quot;&gt;REFERENCES&lt;/span&gt;&lt;span style=&quot;color: rgb(231, 236, 243); font-family: SFMono-Semibold; font-size: 14px; white-space: pre; background-color: rgb(12, 22, 40);&quot;&gt; &lt;/span&gt;&lt;span style=&quot;box-sizing: border-box; margin: 0px; padding: 0px; font-family: SFMono-Semibold; color: rgb(255, 165, 59); font-size: 14px; white-space: pre; background-color: rgb(12, 22, 40);&quot; class=&quot;hljs-built_in&quot;&gt;public&lt;/span&gt;&lt;span style=&quot;color: rgb(231, 236, 243); font-family: SFMono-Semibold; font-size: 14px; white-space: pre; background-color: rgb(12, 22, 40);&quot;&gt;.tracks(track_id),&lt;br/&gt;  &lt;/span&gt;&lt;span style=&quot;box-sizing: border-box; margin: 0px; padding: 0px; font-family: SFMono-Semibold; color: rgb(206, 192, 242); font-size: 14px; white-space: pre; background-color: rgb(12, 22, 40);&quot; class=&quot;hljs-keyword&quot;&gt;CONSTRAINT&lt;/span&gt;&lt;span style=&quot;color: rgb(231, 236, 243); font-family: SFMono-Semibold; font-size: 14px; white-space: pre; background-color: rgb(12, 22, 40);&quot;&gt; streams_album_id_fkey &lt;/span&gt;&lt;span style=&quot;box-sizing: border-box; margin: 0px; padding: 0px; font-family: SFMono-Semibold; color: rgb(206, 192, 242); font-size: 14px; white-space: pre; background-color: rgb(12, 22, 40);&quot; class=&quot;hljs-keyword&quot;&gt;FOREIGN KEY&lt;/span&gt;&lt;span style=&quot;color: rgb(231, 236, 243); font-family: SFMono-Semibold; font-size: 14px; white-space: pre; background-color: rgb(12, 22, 40);&quot;&gt; (album_id) &lt;/span&gt;&lt;span style=&quot;box-sizing: border-box; margin: 0px; padding: 0px; font-family: SFMono-Semibold; color: rgb(206, 192, 242); font-size: 14px; white-space: pre; background-color: rgb(12, 22, 40);&quot; class=&quot;hljs-keyword&quot;&gt;REFERENCES&lt;/span&gt;&lt;span style=&quot;color: rgb(231, 236, 243); font-family: SFMono-Semibold; font-size: 14px; white-space: pre; background-color: rgb(12, 22, 40);&quot;&gt; &lt;/span&gt;&lt;span style=&quot;box-sizing: border-box; margin: 0px; padding: 0px; font-family: SFMono-Semibold; color: rgb(255, 165, 59); font-size: 14px; white-space: pre; background-color: rgb(12, 22, 40);&quot; class=&quot;hljs-built_in&quot;&gt;public&lt;/span&gt;&lt;span style=&quot;color: rgb(231, 236, 243); font-family: SFMono-Semibold; font-size: 14px; white-space: pre; background-color: rgb(12, 22, 40);&quot;&gt;.albums(album_id),&lt;br/&gt;  &lt;/span&gt;&lt;span style=&quot;box-sizing: border-box; margin: 0px; padding: 0px; font-family: SFMono-Semibold; color: rgb(206, 192, 242); font-size: 14px; white-space: pre; background-color: rgb(12, 22, 40);&quot; class=&quot;hljs-keyword&quot;&gt;UNIQUE&lt;/span&gt;&lt;span style=&quot;color: rgb(231, 236, 243); font-family: SFMono-Semibold; font-size: 14px; white-space: pre; background-color: rgb(12, 22, 40);&quot;&gt; &lt;/span&gt;&lt;span style=&quot;box-sizing: border-box; margin: 0px; padding: 0px; font-family: SFMono-Semibold; color: rgb(206, 192, 242); font-size: 14px; white-space: pre; background-color: rgb(12, 22, 40);&quot; class=&quot;hljs-keyword&quot;&gt;INDEX&lt;/span&gt;&lt;span style=&quot;color: rgb(231, 236, 243); font-family: SFMono-Semibold; font-size: 14px; white-space: pre; background-color: rgb(12, 22, 40);&quot;&gt; streams_track_play_album_unique (track_id &lt;/span&gt;&lt;span style=&quot;box-sizing: border-box; margin: 0px; padding: 0px; font-family: SFMono-Semibold; color: rgb(206, 192, 242); font-size: 14px; white-space: pre; background-color: rgb(12, 22, 40);&quot; class=&quot;hljs-keyword&quot;&gt;ASC&lt;/span&gt;&lt;span style=&quot;color: rgb(231, 236, 243); font-family: SFMono-Semibold; font-size: 14px; white-space: pre; background-color: rgb(12, 22, 40);&quot;&gt;, play_count &lt;/span&gt;&lt;span style=&quot;box-sizing: border-box; margin: 0px; padding: 0px; font-family: SFMono-Semibold; color: rgb(206, 192, 242); font-size: 14px; white-space: pre; background-color: rgb(12, 22, 40);&quot; class=&quot;hljs-keyword&quot;&gt;ASC&lt;/span&gt;&lt;span style=&quot;color: rgb(231, 236, 243); font-family: SFMono-Semibold; font-size: 14px; white-space: pre; background-color: rgb(12, 22, 40);&quot;&gt;, album_id &lt;/span&gt;&lt;span style=&quot;box-sizing: border-box; margin: 0px; padding: 0px; font-family: SFMono-Semibold; color: rgb(206, 192, 242); font-size: 14px; white-space: pre; background-color: rgb(12, 22, 40);&quot; class=&quot;hljs-keyword&quot;&gt;ASC&lt;/span&gt;&lt;span style=&quot;color: rgb(231, 236, 243); font-family: SFMono-Semibold; font-size: 14px; white-space: pre; background-color: rgb(12, 22, 40);&quot;&gt;),&lt;br/&gt;  &lt;/span&gt;&lt;span style=&quot;box-sizing: border-box; margin: 0px; padding: 0px; font-family: SFMono-Semibold; color: rgb(206, 192, 242); font-size: 14px; white-space: pre; background-color: rgb(12, 22, 40);&quot; class=&quot;hljs-keyword&quot;&gt;INDEX&lt;/span&gt;&lt;span style=&quot;color: rgb(231, 236, 243); font-family: SFMono-Semibold; font-size: 14px; white-space: pre; background-color: rgb(12, 22, 40);&quot;&gt; streams_album_time_idx (album_id &lt;/span&gt;&lt;span style=&quot;box-sizing: border-box; margin: 0px; padding: 0px; font-family: SFMono-Semibold; color: rgb(206, 192, 242); font-size: 14px; white-space: pre; background-color: rgb(12, 22, 40);&quot; class=&quot;hljs-keyword&quot;&gt;ASC&lt;/span&gt;&lt;span style=&quot;color: rgb(231, 236, 243); font-family: SFMono-Semibold; font-size: 14px; white-space: pre; background-color: rgb(12, 22, 40);&quot;&gt;, &quot;timestamp&quot; &lt;/span&gt;&lt;span style=&quot;box-sizing: border-box; margin: 0px; padding: 0px; font-family: SFMono-Semibold; color: rgb(206, 192, 242); font-size: 14px; white-space: pre; background-color: rgb(12, 22, 40);&quot; class=&quot;hljs-keyword&quot;&gt;DESC&lt;/span&gt;&lt;span style=&quot;color: rgb(231, 236, 243); font-family: SFMono-Semibold; font-size: 14px; white-space: pre; background-color: rgb(12, 22, 40);&quot;&gt;)&lt;br/&gt;)&lt;/span&gt;" style="text;whiteSpace=wrap;html=1;" vertex="1" parent="_PHVv9r6wHCgCaR1bIUu-45">
          <mxGeometry y="30" width="670" height="210" as="geometry" />
        </mxCell>
        <mxCell id="_PHVv9r6wHCgCaR1bIUu-47" value="tracks" style="swimlane;fontStyle=0;childLayout=stackLayout;horizontal=1;startSize=30;horizontalStack=0;resizeParent=1;resizeParentMax=0;resizeLast=0;collapsible=1;marginBottom=0;whiteSpace=wrap;html=1;" vertex="1" parent="1">
          <mxGeometry x="-1060" y="880" width="670" height="190" as="geometry" />
        </mxCell>
        <mxCell id="_PHVv9r6wHCgCaR1bIUu-48" value="&lt;span style=&quot;box-sizing: border-box; margin: 0px; padding: 0px; font-family: SFMono-Semibold; color: rgb(206, 192, 242); font-size: 14px; white-space: pre; background-color: rgb(12, 22, 40);&quot; class=&quot;hljs-keyword&quot;&gt;CREATE&lt;/span&gt;&lt;span style=&quot;color: rgb(231, 236, 243); font-family: SFMono-Semibold; font-size: 14px; white-space: pre; background-color: rgb(12, 22, 40);&quot;&gt; &lt;/span&gt;&lt;span style=&quot;box-sizing: border-box; margin: 0px; padding: 0px; font-family: SFMono-Semibold; color: rgb(206, 192, 242); font-size: 14px; white-space: pre; background-color: rgb(12, 22, 40);&quot; class=&quot;hljs-keyword&quot;&gt;TABLE&lt;/span&gt;&lt;span style=&quot;color: rgb(231, 236, 243); font-family: SFMono-Semibold; font-size: 14px; white-space: pre; background-color: rgb(12, 22, 40);&quot;&gt; &lt;/span&gt;&lt;span style=&quot;box-sizing: border-box; margin: 0px; padding: 0px; font-family: SFMono-Semibold; color: rgb(255, 165, 59); font-size: 14px; white-space: pre; background-color: rgb(12, 22, 40);&quot; class=&quot;hljs-built_in&quot;&gt;public&lt;/span&gt;&lt;span style=&quot;color: rgb(231, 236, 243); font-family: SFMono-Semibold; font-size: 14px; white-space: pre; background-color: rgb(12, 22, 40);&quot;&gt;.tracks (&lt;br/&gt;  track_id STRING &lt;/span&gt;&lt;span style=&quot;box-sizing: border-box; margin: 0px; padding: 0px; font-family: SFMono-Semibold; color: rgb(206, 192, 242); font-size: 14px; white-space: pre; background-color: rgb(12, 22, 40);&quot; class=&quot;hljs-keyword&quot;&gt;NOT&lt;/span&gt;&lt;span style=&quot;color: rgb(231, 236, 243); font-family: SFMono-Semibold; font-size: 14px; white-space: pre; background-color: rgb(12, 22, 40);&quot;&gt; &lt;/span&gt;&lt;span style=&quot;box-sizing: border-box; margin: 0px; padding: 0px; font-family: SFMono-Semibold; color: rgb(206, 192, 242); font-size: 14px; white-space: pre; background-color: rgb(12, 22, 40);&quot; class=&quot;hljs-keyword&quot;&gt;NULL&lt;/span&gt;&lt;span style=&quot;color: rgb(231, 236, 243); font-family: SFMono-Semibold; font-size: 14px; white-space: pre; background-color: rgb(12, 22, 40);&quot;&gt;,&lt;br/&gt;  artist_id STRING &lt;/span&gt;&lt;span style=&quot;box-sizing: border-box; margin: 0px; padding: 0px; font-family: SFMono-Semibold; color: rgb(206, 192, 242); font-size: 14px; white-space: pre; background-color: rgb(12, 22, 40);&quot; class=&quot;hljs-keyword&quot;&gt;NULL&lt;/span&gt;&lt;span style=&quot;color: rgb(231, 236, 243); font-family: SFMono-Semibold; font-size: 14px; white-space: pre; background-color: rgb(12, 22, 40);&quot;&gt;,&lt;br/&gt;  album_id STRING &lt;/span&gt;&lt;span style=&quot;box-sizing: border-box; margin: 0px; padding: 0px; font-family: SFMono-Semibold; color: rgb(206, 192, 242); font-size: 14px; white-space: pre; background-color: rgb(12, 22, 40);&quot; class=&quot;hljs-keyword&quot;&gt;NULL&lt;/span&gt;&lt;span style=&quot;color: rgb(231, 236, 243); font-family: SFMono-Semibold; font-size: 14px; white-space: pre; background-color: rgb(12, 22, 40);&quot;&gt;,&lt;br/&gt;  &lt;/span&gt;&lt;span style=&quot;box-sizing: border-box; margin: 0px; padding: 0px; font-family: SFMono-Semibold; color: rgb(231, 236, 243); font-size: 14px; white-space: pre; background-color: rgb(12, 22, 40);&quot; class=&quot;hljs-type&quot;&gt;name&lt;/span&gt;&lt;span style=&quot;color: rgb(231, 236, 243); font-family: SFMono-Semibold; font-size: 14px; white-space: pre; background-color: rgb(12, 22, 40);&quot;&gt; STRING &lt;/span&gt;&lt;span style=&quot;box-sizing: border-box; margin: 0px; padding: 0px; font-family: SFMono-Semibold; color: rgb(206, 192, 242); font-size: 14px; white-space: pre; background-color: rgb(12, 22, 40);&quot; class=&quot;hljs-keyword&quot;&gt;NOT&lt;/span&gt;&lt;span style=&quot;color: rgb(231, 236, 243); font-family: SFMono-Semibold; font-size: 14px; white-space: pre; background-color: rgb(12, 22, 40);&quot;&gt; &lt;/span&gt;&lt;span style=&quot;box-sizing: border-box; margin: 0px; padding: 0px; font-family: SFMono-Semibold; color: rgb(206, 192, 242); font-size: 14px; white-space: pre; background-color: rgb(12, 22, 40);&quot; class=&quot;hljs-keyword&quot;&gt;NULL&lt;/span&gt;&lt;span style=&quot;color: rgb(231, 236, 243); font-family: SFMono-Semibold; font-size: 14px; white-space: pre; background-color: rgb(12, 22, 40);&quot;&gt;,&lt;br/&gt;  created_at &lt;/span&gt;&lt;span style=&quot;box-sizing: border-box; margin: 0px; padding: 0px; font-family: SFMono-Semibold; color: rgb(231, 236, 243); font-size: 14px; white-space: pre; background-color: rgb(12, 22, 40);&quot; class=&quot;hljs-type&quot;&gt;TIMESTAMP&lt;/span&gt;&lt;span style=&quot;color: rgb(231, 236, 243); font-family: SFMono-Semibold; font-size: 14px; white-space: pre; background-color: rgb(12, 22, 40);&quot;&gt; &lt;/span&gt;&lt;span style=&quot;box-sizing: border-box; margin: 0px; padding: 0px; font-family: SFMono-Semibold; color: rgb(206, 192, 242); font-size: 14px; white-space: pre; background-color: rgb(12, 22, 40);&quot; class=&quot;hljs-keyword&quot;&gt;NULL&lt;/span&gt;&lt;span style=&quot;color: rgb(231, 236, 243); font-family: SFMono-Semibold; font-size: 14px; white-space: pre; background-color: rgb(12, 22, 40);&quot;&gt; &lt;/span&gt;&lt;span style=&quot;box-sizing: border-box; margin: 0px; padding: 0px; font-family: SFMono-Semibold; color: rgb(206, 192, 242); font-size: 14px; white-space: pre; background-color: rgb(12, 22, 40);&quot; class=&quot;hljs-keyword&quot;&gt;DEFAULT&lt;/span&gt;&lt;span style=&quot;color: rgb(231, 236, 243); font-family: SFMono-Semibold; font-size: 14px; white-space: pre; background-color: rgb(12, 22, 40);&quot;&gt; now():::&lt;/span&gt;&lt;span style=&quot;box-sizing: border-box; margin: 0px; padding: 0px; font-family: SFMono-Semibold; color: rgb(231, 236, 243); font-size: 14px; white-space: pre; background-color: rgb(12, 22, 40);&quot; class=&quot;hljs-type&quot;&gt;TIMESTAMP&lt;/span&gt;&lt;span style=&quot;color: rgb(231, 236, 243); font-family: SFMono-Semibold; font-size: 14px; white-space: pre; background-color: rgb(12, 22, 40);&quot;&gt;,&lt;br/&gt;  &lt;/span&gt;&lt;span style=&quot;box-sizing: border-box; margin: 0px; padding: 0px; font-family: SFMono-Semibold; color: rgb(206, 192, 242); font-size: 14px; white-space: pre; background-color: rgb(12, 22, 40);&quot; class=&quot;hljs-keyword&quot;&gt;CONSTRAINT&lt;/span&gt;&lt;span style=&quot;color: rgb(231, 236, 243); font-family: SFMono-Semibold; font-size: 14px; white-space: pre; background-color: rgb(12, 22, 40);&quot;&gt; tracks_pkey &lt;/span&gt;&lt;span style=&quot;box-sizing: border-box; margin: 0px; padding: 0px; font-family: SFMono-Semibold; color: rgb(206, 192, 242); font-size: 14px; white-space: pre; background-color: rgb(12, 22, 40);&quot; class=&quot;hljs-keyword&quot;&gt;PRIMARY KEY&lt;/span&gt;&lt;span style=&quot;color: rgb(231, 236, 243); font-family: SFMono-Semibold; font-size: 14px; white-space: pre; background-color: rgb(12, 22, 40);&quot;&gt; (track_id &lt;/span&gt;&lt;span style=&quot;box-sizing: border-box; margin: 0px; padding: 0px; font-family: SFMono-Semibold; color: rgb(206, 192, 242); font-size: 14px; white-space: pre; background-color: rgb(12, 22, 40);&quot; class=&quot;hljs-keyword&quot;&gt;ASC&lt;/span&gt;&lt;span style=&quot;color: rgb(231, 236, 243); font-family: SFMono-Semibold; font-size: 14px; white-space: pre; background-color: rgb(12, 22, 40);&quot;&gt;),&lt;br/&gt;  &lt;/span&gt;&lt;span style=&quot;box-sizing: border-box; margin: 0px; padding: 0px; font-family: SFMono-Semibold; color: rgb(206, 192, 242); font-size: 14px; white-space: pre; background-color: rgb(12, 22, 40);&quot; class=&quot;hljs-keyword&quot;&gt;CONSTRAINT&lt;/span&gt;&lt;span style=&quot;color: rgb(231, 236, 243); font-family: SFMono-Semibold; font-size: 14px; white-space: pre; background-color: rgb(12, 22, 40);&quot;&gt; tracks_album_id_fkey &lt;/span&gt;&lt;span style=&quot;box-sizing: border-box; margin: 0px; padding: 0px; font-family: SFMono-Semibold; color: rgb(206, 192, 242); font-size: 14px; white-space: pre; background-color: rgb(12, 22, 40);&quot; class=&quot;hljs-keyword&quot;&gt;FOREIGN KEY&lt;/span&gt;&lt;span style=&quot;color: rgb(231, 236, 243); font-family: SFMono-Semibold; font-size: 14px; white-space: pre; background-color: rgb(12, 22, 40);&quot;&gt; (album_id) &lt;/span&gt;&lt;span style=&quot;box-sizing: border-box; margin: 0px; padding: 0px; font-family: SFMono-Semibold; color: rgb(206, 192, 242); font-size: 14px; white-space: pre; background-color: rgb(12, 22, 40);&quot; class=&quot;hljs-keyword&quot;&gt;REFERENCES&lt;/span&gt;&lt;span style=&quot;color: rgb(231, 236, 243); font-family: SFMono-Semibold; font-size: 14px; white-space: pre; background-color: rgb(12, 22, 40);&quot;&gt; &lt;/span&gt;&lt;span style=&quot;box-sizing: border-box; margin: 0px; padding: 0px; font-family: SFMono-Semibold; color: rgb(255, 165, 59); font-size: 14px; white-space: pre; background-color: rgb(12, 22, 40);&quot; class=&quot;hljs-built_in&quot;&gt;public&lt;/span&gt;&lt;span style=&quot;color: rgb(231, 236, 243); font-family: SFMono-Semibold; font-size: 14px; white-space: pre; background-color: rgb(12, 22, 40);&quot;&gt;.albums(album_id)&lt;br/&gt;)&lt;/span&gt;" style="text;whiteSpace=wrap;html=1;" vertex="1" parent="_PHVv9r6wHCgCaR1bIUu-47">
          <mxGeometry y="30" width="670" height="160" as="geometry" />
        </mxCell>
        <mxCell id="_PHVv9r6wHCgCaR1bIUu-49" value="user top tracks" style="swimlane;fontStyle=0;childLayout=stackLayout;horizontal=1;startSize=30;horizontalStack=0;resizeParent=1;resizeParentMax=0;resizeLast=0;collapsible=1;marginBottom=0;whiteSpace=wrap;html=1;" vertex="1" parent="1">
          <mxGeometry x="-1060" y="1120" width="670" height="210" as="geometry" />
        </mxCell>
        <mxCell id="_PHVv9r6wHCgCaR1bIUu-50" value="&lt;span style=&quot;box-sizing: border-box; margin: 0px; padding: 0px; font-family: SFMono-Semibold; color: rgb(206, 192, 242); font-size: 14px; white-space: pre; background-color: rgb(12, 22, 40);&quot; class=&quot;hljs-keyword&quot;&gt;CREATE&lt;/span&gt;&lt;span style=&quot;color: rgb(231, 236, 243); font-family: SFMono-Semibold; font-size: 14px; white-space: pre; background-color: rgb(12, 22, 40);&quot;&gt; &lt;/span&gt;&lt;span style=&quot;box-sizing: border-box; margin: 0px; padding: 0px; font-family: SFMono-Semibold; color: rgb(206, 192, 242); font-size: 14px; white-space: pre; background-color: rgb(12, 22, 40);&quot; class=&quot;hljs-keyword&quot;&gt;TABLE&lt;/span&gt;&lt;span style=&quot;color: rgb(231, 236, 243); font-family: SFMono-Semibold; font-size: 14px; white-space: pre; background-color: rgb(12, 22, 40);&quot;&gt; &lt;/span&gt;&lt;span style=&quot;box-sizing: border-box; margin: 0px; padding: 0px; font-family: SFMono-Semibold; color: rgb(255, 165, 59); font-size: 14px; white-space: pre; background-color: rgb(12, 22, 40);&quot; class=&quot;hljs-built_in&quot;&gt;public&lt;/span&gt;&lt;span style=&quot;color: rgb(231, 236, 243); font-family: SFMono-Semibold; font-size: 14px; white-space: pre; background-color: rgb(12, 22, 40);&quot;&gt;.user_top_tracks (&lt;br/&gt;  id &lt;/span&gt;&lt;span style=&quot;box-sizing: border-box; margin: 0px; padding: 0px; font-family: SFMono-Semibold; color: rgb(231, 236, 243); font-size: 14px; white-space: pre; background-color: rgb(12, 22, 40);&quot; class=&quot;hljs-type&quot;&gt;UUID&lt;/span&gt;&lt;span style=&quot;color: rgb(231, 236, 243); font-family: SFMono-Semibold; font-size: 14px; white-space: pre; background-color: rgb(12, 22, 40);&quot;&gt; &lt;/span&gt;&lt;span style=&quot;box-sizing: border-box; margin: 0px; padding: 0px; font-family: SFMono-Semibold; color: rgb(206, 192, 242); font-size: 14px; white-space: pre; background-color: rgb(12, 22, 40);&quot; class=&quot;hljs-keyword&quot;&gt;NOT&lt;/span&gt;&lt;span style=&quot;color: rgb(231, 236, 243); font-family: SFMono-Semibold; font-size: 14px; white-space: pre; background-color: rgb(12, 22, 40);&quot;&gt; &lt;/span&gt;&lt;span style=&quot;box-sizing: border-box; margin: 0px; padding: 0px; font-family: SFMono-Semibold; color: rgb(206, 192, 242); font-size: 14px; white-space: pre; background-color: rgb(12, 22, 40);&quot; class=&quot;hljs-keyword&quot;&gt;NULL&lt;/span&gt;&lt;span style=&quot;color: rgb(231, 236, 243); font-family: SFMono-Semibold; font-size: 14px; white-space: pre; background-color: rgb(12, 22, 40);&quot;&gt; &lt;/span&gt;&lt;span style=&quot;box-sizing: border-box; margin: 0px; padding: 0px; font-family: SFMono-Semibold; color: rgb(206, 192, 242); font-size: 14px; white-space: pre; background-color: rgb(12, 22, 40);&quot; class=&quot;hljs-keyword&quot;&gt;DEFAULT&lt;/span&gt;&lt;span style=&quot;color: rgb(231, 236, 243); font-family: SFMono-Semibold; font-size: 14px; white-space: pre; background-color: rgb(12, 22, 40);&quot;&gt; gen_random_uuid(),&lt;br/&gt;  user_id &lt;/span&gt;&lt;span style=&quot;box-sizing: border-box; margin: 0px; padding: 0px; font-family: SFMono-Semibold; color: rgb(231, 236, 243); font-size: 14px; white-space: pre; background-color: rgb(12, 22, 40);&quot; class=&quot;hljs-type&quot;&gt;UUID&lt;/span&gt;&lt;span style=&quot;color: rgb(231, 236, 243); font-family: SFMono-Semibold; font-size: 14px; white-space: pre; background-color: rgb(12, 22, 40);&quot;&gt; &lt;/span&gt;&lt;span style=&quot;box-sizing: border-box; margin: 0px; padding: 0px; font-family: SFMono-Semibold; color: rgb(206, 192, 242); font-size: 14px; white-space: pre; background-color: rgb(12, 22, 40);&quot; class=&quot;hljs-keyword&quot;&gt;NOT&lt;/span&gt;&lt;span style=&quot;color: rgb(231, 236, 243); font-family: SFMono-Semibold; font-size: 14px; white-space: pre; background-color: rgb(12, 22, 40);&quot;&gt; &lt;/span&gt;&lt;span style=&quot;box-sizing: border-box; margin: 0px; padding: 0px; font-family: SFMono-Semibold; color: rgb(206, 192, 242); font-size: 14px; white-space: pre; background-color: rgb(12, 22, 40);&quot; class=&quot;hljs-keyword&quot;&gt;NULL&lt;/span&gt;&lt;span style=&quot;color: rgb(231, 236, 243); font-family: SFMono-Semibold; font-size: 14px; white-space: pre; background-color: rgb(12, 22, 40);&quot;&gt;,&lt;br/&gt;  track_id STRING &lt;/span&gt;&lt;span style=&quot;box-sizing: border-box; margin: 0px; padding: 0px; font-family: SFMono-Semibold; color: rgb(206, 192, 242); font-size: 14px; white-space: pre; background-color: rgb(12, 22, 40);&quot; class=&quot;hljs-keyword&quot;&gt;NOT&lt;/span&gt;&lt;span style=&quot;color: rgb(231, 236, 243); font-family: SFMono-Semibold; font-size: 14px; white-space: pre; background-color: rgb(12, 22, 40);&quot;&gt; &lt;/span&gt;&lt;span style=&quot;box-sizing: border-box; margin: 0px; padding: 0px; font-family: SFMono-Semibold; color: rgb(206, 192, 242); font-size: 14px; white-space: pre; background-color: rgb(12, 22, 40);&quot; class=&quot;hljs-keyword&quot;&gt;NULL&lt;/span&gt;&lt;span style=&quot;color: rgb(231, 236, 243); font-family: SFMono-Semibold; font-size: 14px; white-space: pre; background-color: rgb(12, 22, 40);&quot;&gt;,&lt;br/&gt;  &quot;position&quot; &lt;/span&gt;&lt;span style=&quot;box-sizing: border-box; margin: 0px; padding: 0px; font-family: SFMono-Semibold; color: rgb(231, 236, 243); font-size: 14px; white-space: pre; background-color: rgb(12, 22, 40);&quot; class=&quot;hljs-type&quot;&gt;INT8&lt;/span&gt;&lt;span style=&quot;color: rgb(231, 236, 243); font-family: SFMono-Semibold; font-size: 14px; white-space: pre; background-color: rgb(12, 22, 40);&quot;&gt; &lt;/span&gt;&lt;span style=&quot;box-sizing: border-box; margin: 0px; padding: 0px; font-family: SFMono-Semibold; color: rgb(206, 192, 242); font-size: 14px; white-space: pre; background-color: rgb(12, 22, 40);&quot; class=&quot;hljs-keyword&quot;&gt;NOT&lt;/span&gt;&lt;span style=&quot;color: rgb(231, 236, 243); font-family: SFMono-Semibold; font-size: 14px; white-space: pre; background-color: rgb(12, 22, 40);&quot;&gt; &lt;/span&gt;&lt;span style=&quot;box-sizing: border-box; margin: 0px; padding: 0px; font-family: SFMono-Semibold; color: rgb(206, 192, 242); font-size: 14px; white-space: pre; background-color: rgb(12, 22, 40);&quot; class=&quot;hljs-keyword&quot;&gt;NULL&lt;/span&gt;&lt;span style=&quot;color: rgb(231, 236, 243); font-family: SFMono-Semibold; font-size: 14px; white-space: pre; background-color: rgb(12, 22, 40);&quot;&gt;,&lt;br/&gt;  created_at &lt;/span&gt;&lt;span style=&quot;box-sizing: border-box; margin: 0px; padding: 0px; font-family: SFMono-Semibold; color: rgb(231, 236, 243); font-size: 14px; white-space: pre; background-color: rgb(12, 22, 40);&quot; class=&quot;hljs-type&quot;&gt;TIMESTAMP&lt;/span&gt;&lt;span style=&quot;color: rgb(231, 236, 243); font-family: SFMono-Semibold; font-size: 14px; white-space: pre; background-color: rgb(12, 22, 40);&quot;&gt; &lt;/span&gt;&lt;span style=&quot;box-sizing: border-box; margin: 0px; padding: 0px; font-family: SFMono-Semibold; color: rgb(206, 192, 242); font-size: 14px; white-space: pre; background-color: rgb(12, 22, 40);&quot; class=&quot;hljs-keyword&quot;&gt;NULL&lt;/span&gt;&lt;span style=&quot;color: rgb(231, 236, 243); font-family: SFMono-Semibold; font-size: 14px; white-space: pre; background-color: rgb(12, 22, 40);&quot;&gt; &lt;/span&gt;&lt;span style=&quot;box-sizing: border-box; margin: 0px; padding: 0px; font-family: SFMono-Semibold; color: rgb(206, 192, 242); font-size: 14px; white-space: pre; background-color: rgb(12, 22, 40);&quot; class=&quot;hljs-keyword&quot;&gt;DEFAULT&lt;/span&gt;&lt;span style=&quot;color: rgb(231, 236, 243); font-family: SFMono-Semibold; font-size: 14px; white-space: pre; background-color: rgb(12, 22, 40);&quot;&gt; now():::&lt;/span&gt;&lt;span style=&quot;box-sizing: border-box; margin: 0px; padding: 0px; font-family: SFMono-Semibold; color: rgb(231, 236, 243); font-size: 14px; white-space: pre; background-color: rgb(12, 22, 40);&quot; class=&quot;hljs-type&quot;&gt;TIMESTAMP&lt;/span&gt;&lt;span style=&quot;color: rgb(231, 236, 243); font-family: SFMono-Semibold; font-size: 14px; white-space: pre; background-color: rgb(12, 22, 40);&quot;&gt;,&lt;br/&gt;  &lt;/span&gt;&lt;span style=&quot;box-sizing: border-box; margin: 0px; padding: 0px; font-family: SFMono-Semibold; color: rgb(206, 192, 242); font-size: 14px; white-space: pre; background-color: rgb(12, 22, 40);&quot; class=&quot;hljs-keyword&quot;&gt;CONSTRAINT&lt;/span&gt;&lt;span style=&quot;color: rgb(231, 236, 243); font-family: SFMono-Semibold; font-size: 14px; white-space: pre; background-color: rgb(12, 22, 40);&quot;&gt; user_top_tracks_pkey &lt;/span&gt;&lt;span style=&quot;box-sizing: border-box; margin: 0px; padding: 0px; font-family: SFMono-Semibold; color: rgb(206, 192, 242); font-size: 14px; white-space: pre; background-color: rgb(12, 22, 40);&quot; class=&quot;hljs-keyword&quot;&gt;PRIMARY KEY&lt;/span&gt;&lt;span style=&quot;color: rgb(231, 236, 243); font-family: SFMono-Semibold; font-size: 14px; white-space: pre; background-color: rgb(12, 22, 40);&quot;&gt; (id &lt;/span&gt;&lt;span style=&quot;box-sizing: border-box; margin: 0px; padding: 0px; font-family: SFMono-Semibold; color: rgb(206, 192, 242); font-size: 14px; white-space: pre; background-color: rgb(12, 22, 40);&quot; class=&quot;hljs-keyword&quot;&gt;ASC&lt;/span&gt;&lt;span style=&quot;color: rgb(231, 236, 243); font-family: SFMono-Semibold; font-size: 14px; white-space: pre; background-color: rgb(12, 22, 40);&quot;&gt;),&lt;br/&gt;  &lt;/span&gt;&lt;span style=&quot;box-sizing: border-box; margin: 0px; padding: 0px; font-family: SFMono-Semibold; color: rgb(206, 192, 242); font-size: 14px; white-space: pre; background-color: rgb(12, 22, 40);&quot; class=&quot;hljs-keyword&quot;&gt;CONSTRAINT&lt;/span&gt;&lt;span style=&quot;color: rgb(231, 236, 243); font-family: SFMono-Semibold; font-size: 14px; white-space: pre; background-color: rgb(12, 22, 40);&quot;&gt; user_top_tracks_track_id_fkey &lt;/span&gt;&lt;span style=&quot;box-sizing: border-box; margin: 0px; padding: 0px; font-family: SFMono-Semibold; color: rgb(206, 192, 242); font-size: 14px; white-space: pre; background-color: rgb(12, 22, 40);&quot; class=&quot;hljs-keyword&quot;&gt;FOREIGN KEY&lt;/span&gt;&lt;span style=&quot;color: rgb(231, 236, 243); font-family: SFMono-Semibold; font-size: 14px; white-space: pre; background-color: rgb(12, 22, 40);&quot;&gt; (track_id) &lt;/span&gt;&lt;span style=&quot;box-sizing: border-box; margin: 0px; padding: 0px; font-family: SFMono-Semibold; color: rgb(206, 192, 242); font-size: 14px; white-space: pre; background-color: rgb(12, 22, 40);&quot; class=&quot;hljs-keyword&quot;&gt;REFERENCES&lt;/span&gt;&lt;span style=&quot;color: rgb(231, 236, 243); font-family: SFMono-Semibold; font-size: 14px; white-space: pre; background-color: rgb(12, 22, 40);&quot;&gt; &lt;/span&gt;&lt;span style=&quot;box-sizing: border-box; margin: 0px; padding: 0px; font-family: SFMono-Semibold; color: rgb(255, 165, 59); font-size: 14px; white-space: pre; background-color: rgb(12, 22, 40);&quot; class=&quot;hljs-built_in&quot;&gt;public&lt;/span&gt;&lt;span style=&quot;color: rgb(231, 236, 243); font-family: SFMono-Semibold; font-size: 14px; white-space: pre; background-color: rgb(12, 22, 40);&quot;&gt;.tracks(track_id),&lt;br/&gt;  &lt;/span&gt;&lt;span style=&quot;box-sizing: border-box; margin: 0px; padding: 0px; font-family: SFMono-Semibold; color: rgb(206, 192, 242); font-size: 14px; white-space: pre; background-color: rgb(12, 22, 40);&quot; class=&quot;hljs-keyword&quot;&gt;INDEX&lt;/span&gt;&lt;span style=&quot;color: rgb(231, 236, 243); font-family: SFMono-Semibold; font-size: 14px; white-space: pre; background-color: rgb(12, 22, 40);&quot;&gt; idx_user_top_tracks_user_id_created_at (user_id &lt;/span&gt;&lt;span style=&quot;box-sizing: border-box; margin: 0px; padding: 0px; font-family: SFMono-Semibold; color: rgb(206, 192, 242); font-size: 14px; white-space: pre; background-color: rgb(12, 22, 40);&quot; class=&quot;hljs-keyword&quot;&gt;ASC&lt;/span&gt;&lt;span style=&quot;color: rgb(231, 236, 243); font-family: SFMono-Semibold; font-size: 14px; white-space: pre; background-color: rgb(12, 22, 40);&quot;&gt;, created_at &lt;/span&gt;&lt;span style=&quot;box-sizing: border-box; margin: 0px; padding: 0px; font-family: SFMono-Semibold; color: rgb(206, 192, 242); font-size: 14px; white-space: pre; background-color: rgb(12, 22, 40);&quot; class=&quot;hljs-keyword&quot;&gt;ASC&lt;/span&gt;&lt;span style=&quot;color: rgb(231, 236, 243); font-family: SFMono-Semibold; font-size: 14px; white-space: pre; background-color: rgb(12, 22, 40);&quot;&gt;)&lt;br/&gt;)&lt;/span&gt;" style="text;whiteSpace=wrap;html=1;" vertex="1" parent="_PHVv9r6wHCgCaR1bIUu-49">
          <mxGeometry y="30" width="670" height="180" as="geometry" />
        </mxCell>
        <mxCell id="_PHVv9r6wHCgCaR1bIUu-52" value="&lt;font style=&quot;color: rgb(255, 255, 255);&quot;&gt;&lt;font style=&quot;font-family: &amp;quot;Courier New&amp;quot;; font-size: small;&quot;&gt;&lt;b&gt;Search Albums&lt;/b&gt;&lt;br&gt;&lt;br&gt;SELECT&lt;/font&gt;&lt;span style=&quot;font-family: &amp;quot;Courier New&amp;quot;; font-size: small;&quot;&gt;&amp;nbsp;&lt;/span&gt;&lt;font style=&quot;font-family: &amp;quot;Courier New&amp;quot;; font-size: small;&quot;&gt;album_id&lt;/font&gt;&lt;font style=&quot;font-family: &amp;quot;Courier New&amp;quot;; font-size: small;&quot;&gt;,&lt;/font&gt;&lt;span style=&quot;font-family: &amp;quot;Courier New&amp;quot;; font-size: small;&quot;&gt;&lt;/span&gt;&lt;br style=&quot;font-family: &amp;quot;Courier New&amp;quot;; font-size: small;&quot;&gt;&lt;span style=&quot;font-family: &amp;quot;Courier New&amp;quot;; font-size: small;&quot;&gt;&amp;nbsp;&amp;nbsp;&amp;nbsp;&amp;nbsp;&amp;nbsp;&amp;nbsp;&amp;nbsp;&lt;/span&gt;&lt;font style=&quot;font-family: &amp;quot;Courier New&amp;quot;; font-size: small;&quot;&gt;artist_name&lt;/font&gt;&lt;font style=&quot;font-family: &amp;quot;Courier New&amp;quot;; font-size: small;&quot;&gt;,&lt;/font&gt;&lt;span style=&quot;font-family: &amp;quot;Courier New&amp;quot;; font-size: small;&quot;&gt;&lt;/span&gt;&lt;br style=&quot;font-family: &amp;quot;Courier New&amp;quot;; font-size: small;&quot;&gt;&lt;span style=&quot;font-family: &amp;quot;Courier New&amp;quot;; font-size: small;&quot;&gt;&amp;nbsp;&amp;nbsp;&amp;nbsp;&amp;nbsp;&amp;nbsp;&amp;nbsp;&amp;nbsp;&lt;/span&gt;&lt;font style=&quot;font-family: &amp;quot;Courier New&amp;quot;; font-size: small;&quot;&gt;name&lt;/font&gt;&lt;span style=&quot;font-family: &amp;quot;Courier New&amp;quot;; font-size: small;&quot;&gt;&amp;nbsp;&lt;/span&gt;&lt;font style=&quot;font-family: &amp;quot;Courier New&amp;quot;; font-size: small;&quot;&gt;AS&lt;/font&gt;&lt;span style=&quot;font-family: &amp;quot;Courier New&amp;quot;; font-size: small;&quot;&gt;&amp;nbsp;&lt;/span&gt;&lt;font style=&quot;font-family: &amp;quot;Courier New&amp;quot;; font-size: small;&quot;&gt;album_name&lt;/font&gt;&lt;font style=&quot;font-family: &amp;quot;Courier New&amp;quot;; font-size: small;&quot;&gt;,&lt;/font&gt;&lt;span style=&quot;font-family: &amp;quot;Courier New&amp;quot;; font-size: small;&quot;&gt;&lt;/span&gt;&lt;br style=&quot;font-family: &amp;quot;Courier New&amp;quot;; font-size: small;&quot;&gt;&lt;span style=&quot;font-family: &amp;quot;Courier New&amp;quot;; font-size: small;&quot;&gt;&amp;nbsp;&amp;nbsp;&amp;nbsp;&amp;nbsp;&amp;nbsp;&amp;nbsp;&amp;nbsp;&lt;/span&gt;&lt;font style=&quot;font-family: &amp;quot;Courier New&amp;quot;; font-size: small;&quot;&gt;cover_art&lt;/font&gt;&lt;font style=&quot;font-family: &amp;quot;Courier New&amp;quot;; font-size: small;&quot;&gt;,&lt;/font&gt;&lt;span style=&quot;font-family: &amp;quot;Courier New&amp;quot;; font-size: small;&quot;&gt;&lt;/span&gt;&lt;br style=&quot;font-family: &amp;quot;Courier New&amp;quot;; font-size: small;&quot;&gt;&lt;span style=&quot;font-family: &amp;quot;Courier New&amp;quot;; font-size: small;&quot;&gt;&amp;nbsp;&amp;nbsp;&amp;nbsp;&amp;nbsp;&amp;nbsp;&amp;nbsp;&amp;nbsp;&lt;/span&gt;&lt;font style=&quot;font-family: &amp;quot;Courier New&amp;quot;; font-size: small;&quot;&gt;release_date&lt;/font&gt;&lt;span style=&quot;font-family: &amp;quot;Courier New&amp;quot;; font-size: small;&quot;&gt;&lt;/span&gt;&lt;br style=&quot;font-family: &amp;quot;Courier New&amp;quot;; font-size: small;&quot;&gt;&lt;font style=&quot;font-family: &amp;quot;Courier New&amp;quot;; font-size: small;&quot;&gt;FROM&lt;/font&gt;&lt;span style=&quot;font-family: &amp;quot;Courier New&amp;quot;; font-size: small;&quot;&gt;&amp;nbsp;&amp;nbsp;&amp;nbsp;&lt;/span&gt;&lt;font style=&quot;font-family: &amp;quot;Courier New&amp;quot;; font-size: small;&quot;&gt;albums&lt;/font&gt;&lt;span style=&quot;font-family: &amp;quot;Courier New&amp;quot;; font-size: small;&quot;&gt;&lt;/span&gt;&lt;br style=&quot;font-family: &amp;quot;Courier New&amp;quot;; font-size: small;&quot;&gt;&lt;font style=&quot;font-family: &amp;quot;Courier New&amp;quot;; font-size: small;&quot;&gt;WHERE&lt;/font&gt;&lt;span style=&quot;font-family: &amp;quot;Courier New&amp;quot;; font-size: small;&quot;&gt;&amp;nbsp;&amp;nbsp;&lt;/span&gt;&lt;font style=&quot;font-family: &amp;quot;Courier New&amp;quot;; font-size: small;&quot;&gt;name&lt;/font&gt;&lt;span style=&quot;font-family: &amp;quot;Courier New&amp;quot;; font-size: small;&quot;&gt;&amp;nbsp;&lt;/span&gt;&lt;font style=&quot;font-family: &amp;quot;Courier New&amp;quot;; font-size: small;&quot;&gt;LIKE&lt;/font&gt;&lt;span style=&quot;font-family: &amp;quot;Courier New&amp;quot;; font-size: small;&quot;&gt;&amp;nbsp;&lt;/span&gt;&lt;font style=&quot;font-family: &amp;quot;Courier New&amp;quot;; font-size: small;&quot;&gt;&#39;%&lt;b&gt;col&lt;/b&gt;%&#39;&lt;/font&gt;&lt;span style=&quot;font-family: &amp;quot;Courier New&amp;quot;; font-size: small;&quot;&gt;&lt;/span&gt;&lt;br style=&quot;font-family: &amp;quot;Courier New&amp;quot;; font-size: small;&quot;&gt;&lt;font style=&quot;font-family: &amp;quot;Courier New&amp;quot;; font-size: small;&quot;&gt;LIMIT&lt;/font&gt;&lt;span style=&quot;font-family: &amp;quot;Courier New&amp;quot;; font-size: small;&quot;&gt;&amp;nbsp;&amp;nbsp;&lt;/span&gt;&lt;font style=&quot;font-family: &amp;quot;Courier New&amp;quot;; font-size: small;&quot;&gt;10&lt;/font&gt;&lt;font style=&quot;font-family: &amp;quot;Courier New&amp;quot;; font-size: small;&quot;&gt;;&lt;/font&gt;&lt;/font&gt;" style="rounded=0;whiteSpace=wrap;html=1;align=left;" vertex="1" parent="1">
          <mxGeometry x="-1740" y="355" width="580" height="200" as="geometry" />
        </mxCell>
        <mxCell id="_PHVv9r6wHCgCaR1bIUu-53" value="&lt;font style=&quot;font-size: 34px;&quot;&gt;Queries&lt;/font&gt;" style="text;html=1;align=center;verticalAlign=middle;whiteSpace=wrap;rounded=0;" vertex="1" parent="1">
          <mxGeometry x="-1570" y="100" width="220" height="60" as="geometry" />
        </mxCell>
        <mxCell id="_PHVv9r6wHCgCaR1bIUu-54" value="&lt;div&gt;&lt;font&gt;&lt;font style=&quot;font-family: &amp;quot;Courier New&amp;quot;; font-size: small; color: rgb(255, 255, 255);&quot;&gt;&lt;b style=&quot;background-color: light-dark(#ffffff, var(--ge-dark-color, #121212));&quot;&gt;Fetch Album Data&lt;/b&gt;&lt;/font&gt;&lt;/font&gt;&lt;/div&gt;&lt;font&gt;&lt;font style=&quot;font-family: &amp;quot;Courier New&amp;quot;; font-size: small;&quot;&gt;&lt;div&gt;&lt;font&gt;&lt;font style=&quot;font-family: &amp;quot;Courier New&amp;quot;; font-size: small; background-color: light-dark(#ffffff, var(--ge-dark-color, #121212)); color: rgb(255, 255, 255);&quot;&gt;&lt;br&gt;&lt;/font&gt;&lt;/font&gt;&lt;/div&gt;&lt;/font&gt;&lt;font&gt;&lt;font&gt;&lt;span style=&quot;background-color: light-dark(#ffffff, var(--ge-dark-color, #121212));&quot;&gt;&lt;font style=&quot;color: rgb(255, 255, 255);&quot;&gt;&lt;font style=&quot;font-family: &amp;quot;Courier New&amp;quot;;&quot;&gt;SELECT&lt;/font&gt;&lt;span style=&quot;font-family: &amp;quot;Courier New&amp;quot;;&quot;&gt;&amp;nbsp;&lt;/span&gt;&lt;font style=&quot;font-family: &amp;quot;Courier New&amp;quot;;&quot;&gt;s&lt;/font&gt;&lt;font style=&quot;font-family: &amp;quot;Courier New&amp;quot;;&quot;&gt;.&lt;/font&gt;&lt;font style=&quot;font-family: &amp;quot;Courier New&amp;quot;;&quot;&gt;timestamp&lt;/font&gt;&lt;span style=&quot;font-family: &amp;quot;Courier New&amp;quot;;&quot;&gt;&amp;nbsp;&lt;/span&gt;&lt;font style=&quot;font-family: &amp;quot;Courier New&amp;quot;;&quot;&gt;::&lt;/font&gt;&lt;span style=&quot;font-family: &amp;quot;Courier New&amp;quot;;&quot;&gt;&amp;nbsp;&lt;/span&gt;&lt;font style=&quot;font-family: &amp;quot;Courier New&amp;quot;;&quot;&gt;DATE as stream_recorded_at&lt;/font&gt;&lt;font style=&quot;font-family: &amp;quot;Courier New&amp;quot;;&quot;&gt;,&lt;/font&gt;&lt;span style=&quot;font-family: &amp;quot;Courier New&amp;quot;;&quot;&gt;&lt;/span&gt;&lt;br style=&quot;font-family: &amp;quot;Courier New&amp;quot;;&quot;&gt;&lt;span style=&quot;font-family: &amp;quot;Courier New&amp;quot;;&quot;&gt;&amp;nbsp;&amp;nbsp;&amp;nbsp;&amp;nbsp;&amp;nbsp;&amp;nbsp;&amp;nbsp;&lt;/span&gt;&lt;font style=&quot;font-family: &amp;quot;Courier New&amp;quot;;&quot;&gt;t&lt;/font&gt;&lt;font style=&quot;font-family: &amp;quot;Courier New&amp;quot;;&quot;&gt;.&lt;/font&gt;&lt;font style=&quot;font-family: &amp;quot;Courier New&amp;quot;;&quot;&gt;name&lt;/font&gt;&lt;span style=&quot;font-family: &amp;quot;Courier New&amp;quot;;&quot;&gt;&amp;nbsp;&amp;nbsp;&amp;nbsp;&amp;nbsp;&amp;nbsp;&amp;nbsp;&amp;nbsp;&amp;nbsp;&amp;nbsp;&amp;nbsp;&amp;nbsp;&amp;nbsp;&lt;/span&gt;&lt;font style=&quot;font-family: &amp;quot;Courier New&amp;quot;;&quot;&gt;AS&lt;/font&gt;&lt;span style=&quot;font-family: &amp;quot;Courier New&amp;quot;;&quot;&gt;&amp;nbsp;&lt;/span&gt;&lt;font style=&quot;font-family: &amp;quot;Courier New&amp;quot;;&quot;&gt;track_name&lt;/font&gt;&lt;font style=&quot;font-family: &amp;quot;Courier New&amp;quot;;&quot;&gt;,&lt;/font&gt;&lt;span style=&quot;font-family: &amp;quot;Courier New&amp;quot;;&quot;&gt;&lt;/span&gt;&lt;br style=&quot;font-family: &amp;quot;Courier New&amp;quot;;&quot;&gt;&lt;span style=&quot;font-family: &amp;quot;Courier New&amp;quot;;&quot;&gt;&amp;nbsp;&amp;nbsp;&amp;nbsp;&amp;nbsp;&amp;nbsp;&amp;nbsp;&amp;nbsp;&lt;/span&gt;&lt;font style=&quot;font-family: &amp;quot;Courier New&amp;quot;;&quot;&gt;a&lt;/font&gt;&lt;font style=&quot;font-family: &amp;quot;Courier New&amp;quot;;&quot;&gt;.&lt;/font&gt;&lt;font style=&quot;font-family: &amp;quot;Courier New&amp;quot;;&quot;&gt;name&lt;/font&gt;&lt;span style=&quot;font-family: &amp;quot;Courier New&amp;quot;;&quot;&gt;&amp;nbsp;&amp;nbsp;&amp;nbsp;&amp;nbsp;&amp;nbsp;&amp;nbsp;&amp;nbsp;&amp;nbsp;&amp;nbsp;&amp;nbsp;&amp;nbsp;&amp;nbsp;&lt;/span&gt;&lt;font style=&quot;font-family: &amp;quot;Courier New&amp;quot;;&quot;&gt;AS&lt;/font&gt;&lt;span style=&quot;font-family: &amp;quot;Courier New&amp;quot;;&quot;&gt;&amp;nbsp;&lt;/span&gt;&lt;font style=&quot;font-family: &amp;quot;Courier New&amp;quot;;&quot;&gt;album_name&lt;/font&gt;&lt;font style=&quot;font-family: &amp;quot;Courier New&amp;quot;;&quot;&gt;,&lt;/font&gt;&lt;span style=&quot;font-family: &amp;quot;Courier New&amp;quot;;&quot;&gt;&lt;/span&gt;&lt;br style=&quot;font-family: &amp;quot;Courier New&amp;quot;;&quot;&gt;&lt;span style=&quot;font-family: &amp;quot;Courier New&amp;quot;;&quot;&gt;&amp;nbsp;&amp;nbsp;&amp;nbsp;&amp;nbsp;&amp;nbsp;&amp;nbsp;&amp;nbsp;&lt;/span&gt;&lt;font style=&quot;font-family: &amp;quot;Courier New&amp;quot;;&quot;&gt;a&lt;/font&gt;&lt;font style=&quot;font-family: &amp;quot;Courier New&amp;quot;;&quot;&gt;.&lt;/font&gt;&lt;font style=&quot;font-family: &amp;quot;Courier New&amp;quot;;&quot;&gt;cover_art&lt;/font&gt;&lt;font style=&quot;font-family: &amp;quot;Courier New&amp;quot;;&quot;&gt;,&lt;/font&gt;&lt;span style=&quot;font-family: &amp;quot;Courier New&amp;quot;;&quot;&gt;&lt;/span&gt;&lt;br style=&quot;font-family: &amp;quot;Courier New&amp;quot;;&quot;&gt;&lt;span style=&quot;font-family: &amp;quot;Courier New&amp;quot;;&quot;&gt;&amp;nbsp;&amp;nbsp;&amp;nbsp;&amp;nbsp;&amp;nbsp;&amp;nbsp;&amp;nbsp;&lt;/span&gt;&lt;font style=&quot;font-family: &amp;quot;Courier New&amp;quot;;&quot;&gt;a&lt;/font&gt;&lt;font style=&quot;font-family: &amp;quot;Courier New&amp;quot;;&quot;&gt;.&lt;/font&gt;&lt;font style=&quot;font-family: &amp;quot;Courier New&amp;quot;;&quot;&gt;release_date&lt;/font&gt;&lt;font style=&quot;font-family: &amp;quot;Courier New&amp;quot;;&quot;&gt;,&lt;/font&gt;&lt;span style=&quot;font-family: &amp;quot;Courier New&amp;quot;;&quot;&gt;&lt;/span&gt;&lt;br style=&quot;font-family: &amp;quot;Courier New&amp;quot;;&quot;&gt;&lt;span style=&quot;font-family: &amp;quot;Courier New&amp;quot;;&quot;&gt;&amp;nbsp;&amp;nbsp;&amp;nbsp;&amp;nbsp;&amp;nbsp;&amp;nbsp;&amp;nbsp;&lt;/span&gt;&lt;font style=&quot;font-family: &amp;quot;Courier New&amp;quot;;&quot;&gt;a&lt;/font&gt;&lt;font style=&quot;font-family: &amp;quot;Courier New&amp;quot;;&quot;&gt;.&lt;/font&gt;&lt;font style=&quot;font-family: &amp;quot;Courier New&amp;quot;;&quot;&gt;artist_name&lt;/font&gt;&lt;font style=&quot;font-family: &amp;quot;Courier New&amp;quot;;&quot;&gt;,&lt;/font&gt;&lt;span style=&quot;font-family: &amp;quot;Courier New&amp;quot;;&quot;&gt;&lt;/span&gt;&lt;br style=&quot;font-family: &amp;quot;Courier New&amp;quot;;&quot;&gt;&lt;span style=&quot;font-family: &amp;quot;Courier New&amp;quot;;&quot;&gt;&amp;nbsp; &amp;nbsp; &amp;nbsp; &amp;nbsp;max&lt;/span&gt;&lt;font style=&quot;font-family: &amp;quot;Courier New&amp;quot;;&quot;&gt;(&lt;/font&gt;&lt;font style=&quot;font-family: &amp;quot;Courier New&amp;quot;;&quot;&gt;s&lt;/font&gt;&lt;font style=&quot;font-family: &amp;quot;Courier New&amp;quot;;&quot;&gt;.&lt;/font&gt;&lt;font style=&quot;font-family: &amp;quot;Courier New&amp;quot;;&quot;&gt;play_count&lt;/font&gt;&lt;font style=&quot;font-family: &amp;quot;Courier New&amp;quot;;&quot;&gt;)&lt;/font&gt;&lt;span style=&quot;font-family: &amp;quot;Courier New&amp;quot;;&quot;&gt;&amp;nbsp;&lt;/span&gt;&lt;font style=&quot;font-family: &amp;quot;Courier New&amp;quot;;&quot;&gt;AS&lt;/font&gt;&lt;span style=&quot;font-family: &amp;quot;Courier New&amp;quot;;&quot;&gt;&amp;nbsp;&lt;/span&gt;&lt;font style=&quot;font-family: &amp;quot;Courier New&amp;quot;;&quot;&gt;play_count&lt;/font&gt;&lt;span style=&quot;font-family: &amp;quot;Courier New&amp;quot;;&quot;&gt;&lt;/span&gt;&lt;br style=&quot;font-family: &amp;quot;Courier New&amp;quot;;&quot;&gt;&lt;font style=&quot;font-family: &amp;quot;Courier New&amp;quot;;&quot;&gt;FROM&lt;/font&gt;&lt;span style=&quot;font-family: &amp;quot;Courier New&amp;quot;;&quot;&gt;&amp;nbsp;&amp;nbsp;&amp;nbsp;&lt;/span&gt;&lt;font style=&quot;font-family: &amp;quot;Courier New&amp;quot;;&quot;&gt;streams&lt;/font&gt;&lt;span style=&quot;font-family: &amp;quot;Courier New&amp;quot;;&quot;&gt;&amp;nbsp;&lt;/span&gt;&lt;font style=&quot;font-family: &amp;quot;Courier New&amp;quot;;&quot;&gt;s&lt;/font&gt;&lt;span style=&quot;font-family: &amp;quot;Courier New&amp;quot;;&quot;&gt;&lt;/span&gt;&lt;br style=&quot;font-family: &amp;quot;Courier New&amp;quot;;&quot;&gt;&lt;span style=&quot;font-family: &amp;quot;Courier New&amp;quot;;&quot;&gt;&amp;nbsp;&amp;nbsp;&amp;nbsp;&amp;nbsp;&amp;nbsp;&amp;nbsp;&amp;nbsp;&lt;/span&gt;&lt;font style=&quot;font-family: &amp;quot;Courier New&amp;quot;;&quot;&gt;left&lt;/font&gt;&lt;span style=&quot;font-family: &amp;quot;Courier New&amp;quot;;&quot;&gt;&amp;nbsp;&lt;/span&gt;&lt;font style=&quot;font-family: &amp;quot;Courier New&amp;quot;;&quot;&gt;join&lt;/font&gt;&lt;span style=&quot;font-family: &amp;quot;Courier New&amp;quot;;&quot;&gt;&amp;nbsp;&lt;/span&gt;&lt;font style=&quot;font-family: &amp;quot;Courier New&amp;quot;;&quot;&gt;tracks&lt;/font&gt;&lt;span style=&quot;font-family: &amp;quot;Courier New&amp;quot;;&quot;&gt;&amp;nbsp;&lt;/span&gt;&lt;font style=&quot;font-family: &amp;quot;Courier New&amp;quot;;&quot;&gt;t&lt;/font&gt;&lt;span style=&quot;font-family: &amp;quot;Courier New&amp;quot;;&quot;&gt;&lt;/span&gt;&lt;br style=&quot;font-family: &amp;quot;Courier New&amp;quot;;&quot;&gt;&lt;span style=&quot;font-family: &amp;quot;Courier New&amp;quot;;&quot;&gt;&amp;nbsp;&amp;nbsp;&amp;nbsp;&amp;nbsp;&amp;nbsp;&amp;nbsp;&amp;nbsp;&amp;nbsp;&amp;nbsp;&amp;nbsp;&amp;nbsp;&amp;nbsp;&amp;nbsp;&amp;nbsp;&lt;/span&gt;&lt;font style=&quot;font-family: &amp;quot;Courier New&amp;quot;;&quot;&gt;ON&lt;/font&gt;&lt;span style=&quot;font-family: &amp;quot;Courier New&amp;quot;;&quot;&gt;&amp;nbsp;&lt;/span&gt;&lt;font style=&quot;font-family: &amp;quot;Courier New&amp;quot;;&quot;&gt;t&lt;/font&gt;&lt;font style=&quot;font-family: &amp;quot;Courier New&amp;quot;;&quot;&gt;.&lt;/font&gt;&lt;font style=&quot;font-family: &amp;quot;Courier New&amp;quot;;&quot;&gt;track_id&lt;/font&gt;&lt;span style=&quot;font-family: &amp;quot;Courier New&amp;quot;;&quot;&gt;&amp;nbsp;&lt;/span&gt;&lt;font style=&quot;font-family: &amp;quot;Courier New&amp;quot;;&quot;&gt;=&lt;/font&gt;&lt;span style=&quot;font-family: &amp;quot;Courier New&amp;quot;;&quot;&gt;&amp;nbsp;&lt;/span&gt;&lt;font style=&quot;font-family: &amp;quot;Courier New&amp;quot;;&quot;&gt;s&lt;/font&gt;&lt;font style=&quot;font-family: &amp;quot;Courier New&amp;quot;;&quot;&gt;.&lt;/font&gt;&lt;font style=&quot;font-family: &amp;quot;Courier New&amp;quot;;&quot;&gt;track_id&lt;/font&gt;&lt;span style=&quot;font-family: &amp;quot;Courier New&amp;quot;;&quot;&gt;&lt;/span&gt;&lt;br style=&quot;font-family: &amp;quot;Courier New&amp;quot;;&quot;&gt;&lt;span style=&quot;font-family: &amp;quot;Courier New&amp;quot;;&quot;&gt;&amp;nbsp;&amp;nbsp;&amp;nbsp;&amp;nbsp;&amp;nbsp;&amp;nbsp;&amp;nbsp;&lt;/span&gt;&lt;font style=&quot;font-family: &amp;quot;Courier New&amp;quot;;&quot;&gt;left&lt;/font&gt;&lt;span style=&quot;font-family: &amp;quot;Courier New&amp;quot;;&quot;&gt;&amp;nbsp;&lt;/span&gt;&lt;font style=&quot;font-family: &amp;quot;Courier New&amp;quot;;&quot;&gt;join&lt;/font&gt;&lt;span style=&quot;font-family: &amp;quot;Courier New&amp;quot;;&quot;&gt;&amp;nbsp;&lt;/span&gt;&lt;font style=&quot;font-family: &amp;quot;Courier New&amp;quot;;&quot;&gt;albums&lt;/font&gt;&lt;span style=&quot;font-family: &amp;quot;Courier New&amp;quot;;&quot;&gt;&amp;nbsp;&lt;/span&gt;&lt;font style=&quot;font-family: &amp;quot;Courier New&amp;quot;;&quot;&gt;a&lt;/font&gt;&lt;span style=&quot;font-family: &amp;quot;Courier New&amp;quot;;&quot;&gt;&lt;/span&gt;&lt;br style=&quot;font-family: &amp;quot;Courier New&amp;quot;;&quot;&gt;&lt;span style=&quot;font-family: &amp;quot;Courier New&amp;quot;;&quot;&gt;&amp;nbsp;&amp;nbsp;&amp;nbsp;&amp;nbsp;&amp;nbsp;&amp;nbsp;&amp;nbsp;&amp;nbsp;&amp;nbsp;&amp;nbsp;&amp;nbsp;&amp;nbsp;&amp;nbsp;&amp;nbsp;&lt;/span&gt;&lt;font style=&quot;font-family: &amp;quot;Courier New&amp;quot;;&quot;&gt;ON&lt;/font&gt;&lt;span style=&quot;font-family: &amp;quot;Courier New&amp;quot;;&quot;&gt;&amp;nbsp;&lt;/span&gt;&lt;font style=&quot;font-family: &amp;quot;Courier New&amp;quot;;&quot;&gt;a&lt;/font&gt;&lt;font style=&quot;font-family: &amp;quot;Courier New&amp;quot;;&quot;&gt;.&lt;/font&gt;&lt;font style=&quot;font-family: &amp;quot;Courier New&amp;quot;;&quot;&gt;album_id&lt;/font&gt;&lt;span style=&quot;font-family: &amp;quot;Courier New&amp;quot;;&quot;&gt;&amp;nbsp;&lt;/span&gt;&lt;font style=&quot;font-family: &amp;quot;Courier New&amp;quot;;&quot;&gt;=&lt;/font&gt;&lt;span style=&quot;font-family: &amp;quot;Courier New&amp;quot;;&quot;&gt;&amp;nbsp;&lt;/span&gt;&lt;font style=&quot;font-family: &amp;quot;Courier New&amp;quot;;&quot;&gt;t&lt;/font&gt;&lt;font style=&quot;font-family: &amp;quot;Courier New&amp;quot;;&quot;&gt;.&lt;/font&gt;&lt;font style=&quot;font-family: &amp;quot;Courier New&amp;quot;;&quot;&gt;album_id&lt;/font&gt;&lt;span style=&quot;font-family: &amp;quot;Courier New&amp;quot;;&quot;&gt;&lt;/span&gt;&lt;br style=&quot;font-family: &amp;quot;Courier New&amp;quot;;&quot;&gt;&lt;font style=&quot;font-family: &amp;quot;Courier New&amp;quot;;&quot;&gt;WHERE&lt;/font&gt;&lt;span style=&quot;font-family: &amp;quot;Courier New&amp;quot;;&quot;&gt;&amp;nbsp;&amp;nbsp;&lt;/span&gt;&lt;font style=&quot;font-family: &amp;quot;Courier New&amp;quot;;&quot;&gt;s&lt;/font&gt;&lt;font style=&quot;font-family: &amp;quot;Courier New&amp;quot;;&quot;&gt;.&lt;/font&gt;&lt;font style=&quot;font-family: &amp;quot;Courier New&amp;quot;;&quot;&gt;album_id&lt;/font&gt;&lt;span style=&quot;font-family: &amp;quot;Courier New&amp;quot;;&quot;&gt;&amp;nbsp;&lt;/span&gt;&lt;font style=&quot;font-family: &amp;quot;Courier New&amp;quot;;&quot;&gt;=&lt;/font&gt;&lt;span style=&quot;font-family: &amp;quot;Courier New&amp;quot;;&quot;&gt;&amp;nbsp;&lt;/span&gt;&lt;font style=&quot;font-family: &amp;quot;Courier New&amp;quot;;&quot;&gt;&#39;&lt;b&gt;4JTOxuvM2jcSqAvEZtZsOO&lt;/b&gt;&#39;&lt;/font&gt;&lt;span style=&quot;font-family: &amp;quot;Courier New&amp;quot;;&quot;&gt;&lt;/span&gt;&lt;br style=&quot;font-family: &amp;quot;Courier New&amp;quot;;&quot;&gt;&lt;span style=&quot;font-family: &amp;quot;Courier New&amp;quot;;&quot;&gt;&amp;nbsp;&amp;nbsp;&amp;nbsp;&amp;nbsp;&amp;nbsp;&amp;nbsp;&amp;nbsp;&lt;/span&gt;&lt;font style=&quot;font-family: &amp;quot;Courier New&amp;quot;;&quot;&gt;AND&lt;/font&gt;&lt;span style=&quot;font-family: &amp;quot;Courier New&amp;quot;;&quot;&gt;&amp;nbsp;&lt;/span&gt;&lt;font style=&quot;font-family: &amp;quot;Courier New&amp;quot;;&quot;&gt;t&lt;/font&gt;&lt;font style=&quot;font-family: &amp;quot;Courier New&amp;quot;;&quot;&gt;.&lt;/font&gt;&lt;font style=&quot;font-family: &amp;quot;Courier New&amp;quot;;&quot;&gt;album_id&lt;/font&gt;&lt;span style=&quot;font-family: &amp;quot;Courier New&amp;quot;;&quot;&gt;&amp;nbsp;&lt;/span&gt;&lt;font style=&quot;font-family: &amp;quot;Courier New&amp;quot;;&quot;&gt;=&lt;/font&gt;&lt;span style=&quot;font-family: &amp;quot;Courier New&amp;quot;;&quot;&gt;&amp;nbsp;&lt;/span&gt;&lt;font style=&quot;font-family: &amp;quot;Courier New&amp;quot;;&quot;&gt;&#39;&lt;b&gt;4JTOxuvM2jcSqAvEZtZsOO&lt;/b&gt;&#39;&lt;/font&gt;&lt;span style=&quot;font-family: &amp;quot;Courier New&amp;quot;;&quot;&gt;&lt;/span&gt;&lt;br style=&quot;font-family: &amp;quot;Courier New&amp;quot;;&quot;&gt;&lt;span style=&quot;font-family: &amp;quot;Courier New&amp;quot;;&quot;&gt;&amp;nbsp;&amp;nbsp;&amp;nbsp;&amp;nbsp;&amp;nbsp;&amp;nbsp;&amp;nbsp;&lt;/span&gt;&lt;font style=&quot;font-family: &amp;quot;Courier New&amp;quot;;&quot;&gt;AND&lt;/font&gt;&lt;span style=&quot;font-family: &amp;quot;Courier New&amp;quot;;&quot;&gt;&amp;nbsp;&lt;/span&gt;&lt;font style=&quot;font-family: &amp;quot;Courier New&amp;quot;;&quot;&gt;a&lt;/font&gt;&lt;font style=&quot;font-family: &amp;quot;Courier New&amp;quot;;&quot;&gt;.&lt;/font&gt;&lt;font style=&quot;font-family: &amp;quot;Courier New&amp;quot;;&quot;&gt;album_id&lt;/font&gt;&lt;span style=&quot;font-family: &amp;quot;Courier New&amp;quot;;&quot;&gt;&amp;nbsp;&lt;/span&gt;&lt;font style=&quot;font-family: &amp;quot;Courier New&amp;quot;;&quot;&gt;=&lt;/font&gt;&lt;span style=&quot;font-family: &amp;quot;Courier New&amp;quot;;&quot;&gt;&amp;nbsp;&lt;/span&gt;&lt;font style=&quot;font-family: &amp;quot;Courier New&amp;quot;;&quot;&gt;&#39;&lt;b&gt;4JTOxuvM2jcSqAvEZtZsOO&lt;/b&gt;&#39;&lt;/font&gt;&lt;span style=&quot;font-family: &amp;quot;Courier New&amp;quot;;&quot;&gt;&lt;/span&gt;&lt;br style=&quot;font-family: &amp;quot;Courier New&amp;quot;;&quot;&gt;&lt;font style=&quot;font-family: &amp;quot;Courier New&amp;quot;;&quot;&gt;GROUP&lt;/font&gt;&lt;span style=&quot;font-family: &amp;quot;Courier New&amp;quot;;&quot;&gt;&amp;nbsp;&amp;nbsp;&lt;/span&gt;&lt;font style=&quot;font-family: &amp;quot;Courier New&amp;quot;;&quot;&gt;BY&lt;/font&gt;&lt;span style=&quot;font-family: &amp;quot;Courier New&amp;quot;;&quot;&gt;&amp;nbsp;&lt;/span&gt;&lt;font style=&quot;font-family: &amp;quot;Courier New&amp;quot;;&quot;&gt;1&lt;/font&gt;&lt;font style=&quot;font-family: &amp;quot;Courier New&amp;quot;;&quot;&gt;,&lt;/font&gt;&lt;span style=&quot;font-family: &amp;quot;Courier New&amp;quot;;&quot;&gt;&lt;/span&gt;&lt;br style=&quot;font-family: &amp;quot;Courier New&amp;quot;;&quot;&gt;&lt;span style=&quot;font-family: &amp;quot;Courier New&amp;quot;;&quot;&gt;&amp;nbsp;&amp;nbsp;&amp;nbsp;&amp;nbsp;&amp;nbsp;&amp;nbsp;&amp;nbsp;&amp;nbsp;&amp;nbsp;&amp;nbsp;&lt;/span&gt;&lt;font style=&quot;font-family: &amp;quot;Courier New&amp;quot;;&quot;&gt;2&lt;/font&gt;&lt;font style=&quot;font-family: &amp;quot;Courier New&amp;quot;;&quot;&gt;,&lt;/font&gt;&lt;span style=&quot;font-family: &amp;quot;Courier New&amp;quot;;&quot;&gt;&lt;/span&gt;&lt;br style=&quot;font-family: &amp;quot;Courier New&amp;quot;;&quot;&gt;&lt;span style=&quot;font-family: &amp;quot;Courier New&amp;quot;;&quot;&gt;&amp;nbsp;&amp;nbsp;&amp;nbsp;&amp;nbsp;&amp;nbsp;&amp;nbsp;&amp;nbsp;&amp;nbsp;&amp;nbsp;&amp;nbsp;&lt;/span&gt;&lt;font style=&quot;font-family: &amp;quot;Courier New&amp;quot;;&quot;&gt;3&lt;/font&gt;&lt;font style=&quot;font-family: &amp;quot;Courier New&amp;quot;;&quot;&gt;,&lt;/font&gt;&lt;span style=&quot;font-family: &amp;quot;Courier New&amp;quot;;&quot;&gt;&lt;/span&gt;&lt;br style=&quot;font-family: &amp;quot;Courier New&amp;quot;;&quot;&gt;&lt;span style=&quot;font-family: &amp;quot;Courier New&amp;quot;;&quot;&gt;&amp;nbsp;&amp;nbsp;&amp;nbsp;&amp;nbsp;&amp;nbsp;&amp;nbsp;&amp;nbsp;&amp;nbsp;&amp;nbsp;&amp;nbsp;&lt;/span&gt;&lt;font style=&quot;font-family: &amp;quot;Courier New&amp;quot;;&quot;&gt;4&lt;/font&gt;&lt;font style=&quot;font-family: &amp;quot;Courier New&amp;quot;;&quot;&gt;,&lt;/font&gt;&lt;span style=&quot;font-family: &amp;quot;Courier New&amp;quot;;&quot;&gt;&lt;/span&gt;&lt;br style=&quot;font-family: &amp;quot;Courier New&amp;quot;;&quot;&gt;&lt;span style=&quot;font-family: &amp;quot;Courier New&amp;quot;;&quot;&gt;&amp;nbsp;&amp;nbsp;&amp;nbsp;&amp;nbsp;&amp;nbsp;&amp;nbsp;&amp;nbsp;&amp;nbsp;&amp;nbsp;&amp;nbsp;&lt;/span&gt;&lt;font style=&quot;font-family: &amp;quot;Courier New&amp;quot;;&quot;&gt;5&lt;/font&gt;&lt;font style=&quot;font-family: &amp;quot;Courier New&amp;quot;;&quot;&gt;,&lt;/font&gt;&lt;span style=&quot;font-family: &amp;quot;Courier New&amp;quot;;&quot;&gt;&lt;/span&gt;&lt;br style=&quot;font-family: &amp;quot;Courier New&amp;quot;;&quot;&gt;&lt;span style=&quot;font-family: &amp;quot;Courier New&amp;quot;;&quot;&gt;&amp;nbsp;&amp;nbsp;&amp;nbsp;&amp;nbsp;&amp;nbsp;&amp;nbsp;&amp;nbsp;&amp;nbsp;&amp;nbsp;&amp;nbsp;&lt;/span&gt;&lt;font style=&quot;font-family: &amp;quot;Courier New&amp;quot;;&quot;&gt;6&lt;/font&gt;&lt;span style=&quot;font-family: &amp;quot;Courier New&amp;quot;;&quot;&gt;&lt;/span&gt;&lt;br style=&quot;font-family: &amp;quot;Courier New&amp;quot;;&quot;&gt;&lt;font style=&quot;font-family: &amp;quot;Courier New&amp;quot;;&quot;&gt;ORDER&lt;/font&gt;&lt;span style=&quot;font-family: &amp;quot;Courier New&amp;quot;;&quot;&gt;&amp;nbsp;&amp;nbsp;&lt;/span&gt;&lt;font style=&quot;font-family: &amp;quot;Courier New&amp;quot;;&quot;&gt;BY&lt;/font&gt;&lt;span style=&quot;font-family: &amp;quot;Courier New&amp;quot;;&quot;&gt;&amp;nbsp;&lt;/span&gt;&lt;font style=&quot;font-family: &amp;quot;Courier New&amp;quot;;&quot;&gt;3&lt;/font&gt;&lt;font style=&quot;font-family: &amp;quot;Courier New&amp;quot;;&quot;&gt;,&lt;/font&gt;&lt;span style=&quot;font-family: &amp;quot;Courier New&amp;quot;;&quot;&gt;&lt;/span&gt;&lt;br style=&quot;font-family: &amp;quot;Courier New&amp;quot;;&quot;&gt;&lt;span style=&quot;font-family: &amp;quot;Courier New&amp;quot;;&quot;&gt;&amp;nbsp;&amp;nbsp;&amp;nbsp;&amp;nbsp;&amp;nbsp;&amp;nbsp;&amp;nbsp;&amp;nbsp;&amp;nbsp;&amp;nbsp;&lt;/span&gt;&lt;font style=&quot;font-family: &amp;quot;Courier New&amp;quot;;&quot;&gt;2&lt;/font&gt;&lt;font style=&quot;font-family: &amp;quot;Courier New&amp;quot;;&quot;&gt;,&lt;/font&gt;&lt;/font&gt;&lt;/span&gt;&lt;/font&gt;&lt;/font&gt;&lt;/font&gt;&lt;div&gt;&lt;font&gt;&lt;font&gt;&lt;span style=&quot;color: light-dark(rgb(255, 246, 224), rgb(33, 25, 6)); font-family: &amp;quot;Courier New&amp;quot;;&quot;&gt;&amp;nbsp;&amp;nbsp;&amp;nbsp;&amp;nbsp;&amp;nbsp;&amp;nbsp;&amp;nbsp;&amp;nbsp;&amp;nbsp;&amp;nbsp;&lt;/span&gt;&lt;font&gt;&lt;font style=&quot;font-family: &amp;quot;Courier New&amp;quot;;&quot;&gt;1&lt;/font&gt;&lt;font style=&quot;font-family: &amp;quot;Courier New&amp;quot;;&quot;&gt;;&lt;/font&gt;&lt;/font&gt;&lt;/font&gt;&lt;span style=&quot;color: rgb(255, 242, 242); font-family: &amp;quot;Courier New&amp;quot;; font-size: small;&quot;&gt;&amp;nbsp;&lt;/span&gt;&lt;/font&gt;&lt;/div&gt;" style="rounded=0;whiteSpace=wrap;html=1;align=left;" vertex="1" parent="1">
          <mxGeometry x="-1740" y="610" width="580" height="430" as="geometry" />
        </mxCell>
        <mxCell id="_PHVv9r6wHCgCaR1bIUu-55" value="&lt;div&gt;&lt;font&gt;&lt;font style=&quot;font-family: &amp;quot;Courier New&amp;quot;; font-size: small; color: rgb(255, 255, 255);&quot;&gt;&lt;b style=&quot;background-color: light-dark(#ffffff, var(--ge-dark-color, #121212));&quot;&gt;Fetch User Profile&lt;/b&gt;&lt;/font&gt;&lt;/font&gt;&lt;/div&gt;&lt;div&gt;&lt;font&gt;&lt;span style=&quot;color: rgb(255, 242, 242); font-family: &amp;quot;Courier New&amp;quot;; font-size: small;&quot;&gt;&lt;br&gt;&lt;/span&gt;&lt;/font&gt;&lt;/div&gt;&lt;div&gt;&lt;font face=&quot;Courier New&quot;&gt;&lt;span style=&quot;background-color: rgb(18, 18, 18);&quot;&gt;with top_tracks as (&lt;/span&gt;&lt;/font&gt;&lt;/div&gt;&lt;div&gt;&lt;font face=&quot;Courier New&quot;&gt;&lt;span style=&quot;background-color: rgb(18, 18, 18);&quot;&gt;&amp;nbsp; &amp;nbsp; select&lt;/span&gt;&lt;/font&gt;&lt;/div&gt;&lt;div&gt;&lt;font face=&quot;Courier New&quot;&gt;&lt;span style=&quot;background-color: rgb(18, 18, 18);&quot;&gt;&amp;nbsp; &amp;nbsp; &amp;nbsp; &amp;nbsp; track_id,&amp;nbsp;&lt;/span&gt;&lt;/font&gt;&lt;/div&gt;&lt;div&gt;&lt;font face=&quot;Courier New&quot;&gt;&lt;span style=&quot;background-color: rgb(18, 18, 18);&quot;&gt;&amp;nbsp; &amp;nbsp; &amp;nbsp; &amp;nbsp; position,&lt;/span&gt;&lt;/font&gt;&lt;/div&gt;&lt;div&gt;&lt;font face=&quot;Courier New&quot;&gt;&lt;span style=&quot;background-color: rgb(18, 18, 18);&quot;&gt;&amp;nbsp; &amp;nbsp; &amp;nbsp; &amp;nbsp; created_at::date as top_track_at,&lt;/span&gt;&lt;/font&gt;&lt;/div&gt;&lt;div&gt;&lt;font face=&quot;Courier New&quot;&gt;&lt;span style=&quot;background-color: rgb(18, 18, 18);&quot;&gt;&amp;nbsp; &amp;nbsp; &amp;nbsp; &amp;nbsp; min(created_at::date) over (partition by track_id) as first_added_at&lt;/span&gt;&lt;/font&gt;&lt;/div&gt;&lt;div&gt;&lt;font face=&quot;Courier New&quot;&gt;&lt;span style=&quot;background-color: rgb(18, 18, 18);&quot;&gt;&amp;nbsp; &amp;nbsp; from&lt;/span&gt;&lt;/font&gt;&lt;/div&gt;&lt;div&gt;&lt;font face=&quot;Courier New&quot;&gt;&lt;span style=&quot;background-color: rgb(18, 18, 18);&quot;&gt;&amp;nbsp; &amp;nbsp; &amp;nbsp; &amp;nbsp; user_top_tracks&lt;/span&gt;&lt;/font&gt;&lt;/div&gt;&lt;div&gt;&lt;font face=&quot;Courier New&quot;&gt;&lt;span style=&quot;background-color: rgb(18, 18, 18);&quot;&gt;&amp;nbsp; &amp;nbsp; where&lt;/span&gt;&lt;/font&gt;&lt;/div&gt;&lt;div&gt;&lt;font face=&quot;Courier New&quot;&gt;&lt;span style=&quot;background-color: rgb(18, 18, 18);&quot;&gt;&amp;nbsp; &amp;nbsp; &amp;nbsp; &amp;nbsp; user_id = &#39;&lt;b&gt;fec39c22-9b3b-4083-9d61-543843a6e951&lt;/b&gt;&#39;&lt;/span&gt;&lt;/font&gt;&lt;/div&gt;&lt;div&gt;&lt;font face=&quot;Courier New&quot;&gt;&lt;span style=&quot;background-color: rgb(18, 18, 18);&quot;&gt;), enriched_tracks as (&lt;/span&gt;&lt;/font&gt;&lt;/div&gt;&lt;div&gt;&lt;font face=&quot;Courier New&quot;&gt;&lt;span style=&quot;background-color: rgb(18, 18, 18);&quot;&gt;&amp;nbsp; &amp;nbsp; select&lt;/span&gt;&lt;/font&gt;&lt;/div&gt;&lt;div&gt;&lt;font face=&quot;Courier New&quot;&gt;&lt;span style=&quot;background-color: rgb(18, 18, 18);&quot;&gt;&amp;nbsp; &amp;nbsp; &amp;nbsp; &amp;nbsp; s.timestamp::date as stream_recorded_at,&lt;/span&gt;&lt;/font&gt;&lt;/div&gt;&lt;div&gt;&lt;font face=&quot;Courier New&quot;&gt;&lt;span style=&quot;background-color: rgb(18, 18, 18);&quot;&gt;&amp;nbsp; &amp;nbsp; &amp;nbsp; &amp;nbsp; t.name as track_name,&lt;/span&gt;&lt;/font&gt;&lt;/div&gt;&lt;div&gt;&lt;font face=&quot;Courier New&quot;&gt;&lt;span style=&quot;background-color: rgb(18, 18, 18);&quot;&gt;&amp;nbsp; &amp;nbsp; &amp;nbsp; &amp;nbsp; t.track_id,&lt;/span&gt;&lt;/font&gt;&lt;/div&gt;&lt;div&gt;&lt;font face=&quot;Courier New&quot;&gt;&lt;span style=&quot;background-color: rgb(18, 18, 18);&quot;&gt;&amp;nbsp; &amp;nbsp; &amp;nbsp; &amp;nbsp; a.name as album_name,&lt;/span&gt;&lt;/font&gt;&lt;/div&gt;&lt;div&gt;&lt;font face=&quot;Courier New&quot;&gt;&lt;span style=&quot;background-color: rgb(18, 18, 18);&quot;&gt;&amp;nbsp; &amp;nbsp; &amp;nbsp; &amp;nbsp; a.cover_art,&lt;/span&gt;&lt;/font&gt;&lt;/div&gt;&lt;div&gt;&lt;font face=&quot;Courier New&quot;&gt;&lt;span style=&quot;background-color: rgb(18, 18, 18);&quot;&gt;&amp;nbsp; &amp;nbsp; &amp;nbsp; &amp;nbsp; a.release_date,&lt;/span&gt;&lt;/font&gt;&lt;/div&gt;&lt;div&gt;&lt;font face=&quot;Courier New&quot;&gt;&lt;span style=&quot;background-color: rgb(18, 18, 18);&quot;&gt;&amp;nbsp; &amp;nbsp; &amp;nbsp; &amp;nbsp; a.artist_name,&lt;/span&gt;&lt;/font&gt;&lt;/div&gt;&lt;div&gt;&lt;font face=&quot;Courier New&quot;&gt;&lt;span style=&quot;background-color: rgb(18, 18, 18);&quot;&gt;&amp;nbsp; &amp;nbsp; &amp;nbsp; &amp;nbsp; max(s.play_count) AS play_count&lt;/span&gt;&lt;/font&gt;&lt;/div&gt;&lt;div&gt;&lt;font face=&quot;Courier New&quot;&gt;&lt;span style=&quot;background-color: rgb(18, 18, 18);&quot;&gt;&amp;nbsp; &amp;nbsp; from&lt;/span&gt;&lt;/font&gt;&lt;/div&gt;&lt;div&gt;&lt;font face=&quot;Courier New&quot;&gt;&lt;span style=&quot;background-color: rgb(18, 18, 18);&quot;&gt;&amp;nbsp; &amp;nbsp; &amp;nbsp; &amp;nbsp; streams s&lt;/span&gt;&lt;/font&gt;&lt;/div&gt;&lt;div&gt;&lt;font face=&quot;Courier New&quot;&gt;&lt;span style=&quot;background-color: rgb(18, 18, 18);&quot;&gt;&amp;nbsp; &amp;nbsp; left join&lt;/span&gt;&lt;/font&gt;&lt;/div&gt;&lt;div&gt;&lt;font face=&quot;Courier New&quot;&gt;&lt;span style=&quot;background-color: rgb(18, 18, 18);&quot;&gt;&amp;nbsp; &amp;nbsp; &amp;nbsp; &amp;nbsp; tracks t&lt;/span&gt;&lt;/font&gt;&lt;/div&gt;&lt;div&gt;&lt;font face=&quot;Courier New&quot;&gt;&lt;span style=&quot;background-color: rgb(18, 18, 18);&quot;&gt;&amp;nbsp; &amp;nbsp; on&amp;nbsp;&lt;/span&gt;&lt;/font&gt;&lt;/div&gt;&lt;div&gt;&lt;font face=&quot;Courier New&quot;&gt;&lt;span style=&quot;background-color: rgb(18, 18, 18);&quot;&gt;&amp;nbsp; &amp;nbsp; &amp;nbsp; &amp;nbsp; s.track_id = t.track_id&lt;/span&gt;&lt;/font&gt;&lt;/div&gt;&lt;div&gt;&lt;font face=&quot;Courier New&quot;&gt;&lt;span style=&quot;background-color: rgb(18, 18, 18);&quot;&gt;&amp;nbsp; &amp;nbsp; left join&lt;/span&gt;&lt;/font&gt;&lt;/div&gt;&lt;div&gt;&lt;font face=&quot;Courier New&quot;&gt;&lt;span style=&quot;background-color: rgb(18, 18, 18);&quot;&gt;&amp;nbsp; &amp;nbsp; &amp;nbsp; &amp;nbsp; albums a&lt;/span&gt;&lt;/font&gt;&lt;/div&gt;&lt;div&gt;&lt;font face=&quot;Courier New&quot;&gt;&lt;span style=&quot;background-color: rgb(18, 18, 18);&quot;&gt;&amp;nbsp; &amp;nbsp; on&amp;nbsp;&lt;/span&gt;&lt;/font&gt;&lt;/div&gt;&lt;div&gt;&lt;font face=&quot;Courier New&quot;&gt;&lt;span style=&quot;background-color: rgb(18, 18, 18);&quot;&gt;&amp;nbsp; &amp;nbsp; &amp;nbsp; &amp;nbsp; t.album_id = a.album_id&lt;/span&gt;&lt;/font&gt;&lt;/div&gt;&lt;div&gt;&lt;font face=&quot;Courier New&quot;&gt;&lt;span style=&quot;background-color: rgb(18, 18, 18);&quot;&gt;&amp;nbsp; &amp;nbsp; where&lt;/span&gt;&lt;/font&gt;&lt;/div&gt;&lt;div&gt;&lt;font face=&quot;Courier New&quot;&gt;&lt;span style=&quot;background-color: rgb(18, 18, 18);&quot;&gt;&amp;nbsp; &amp;nbsp; &amp;nbsp; &amp;nbsp; s.track_id in (select distinct track_id from top_tracks) and&lt;/span&gt;&lt;/font&gt;&lt;/div&gt;&lt;div&gt;&lt;font face=&quot;Courier New&quot;&gt;&lt;span style=&quot;background-color: rgb(18, 18, 18);&quot;&gt;&amp;nbsp; &amp;nbsp; &amp;nbsp; &amp;nbsp; t.track_id in (select distinct track_id from top_tracks)&lt;/span&gt;&lt;/font&gt;&lt;/div&gt;&lt;div&gt;&lt;font face=&quot;Courier New&quot;&gt;&lt;span style=&quot;background-color: rgb(18, 18, 18);&quot;&gt;&amp;nbsp; &amp;nbsp; group by&lt;/span&gt;&lt;/font&gt;&lt;/div&gt;&lt;div&gt;&lt;font face=&quot;Courier New&quot;&gt;&lt;span style=&quot;background-color: rgb(18, 18, 18);&quot;&gt;&amp;nbsp; &amp;nbsp; &amp;nbsp; &amp;nbsp; 1,&lt;/span&gt;&lt;/font&gt;&lt;/div&gt;&lt;div&gt;&lt;font face=&quot;Courier New&quot;&gt;&lt;span style=&quot;background-color: rgb(18, 18, 18);&quot;&gt;&amp;nbsp; &amp;nbsp; &amp;nbsp; &amp;nbsp; 2,&lt;/span&gt;&lt;/font&gt;&lt;/div&gt;&lt;div&gt;&lt;font face=&quot;Courier New&quot;&gt;&lt;span style=&quot;background-color: rgb(18, 18, 18);&quot;&gt;&amp;nbsp; &amp;nbsp; &amp;nbsp; &amp;nbsp; 3,&lt;/span&gt;&lt;/font&gt;&lt;/div&gt;&lt;div&gt;&lt;font face=&quot;Courier New&quot;&gt;&lt;span style=&quot;background-color: rgb(18, 18, 18);&quot;&gt;&amp;nbsp; &amp;nbsp; &amp;nbsp; &amp;nbsp; 4,&lt;/span&gt;&lt;/font&gt;&lt;/div&gt;&lt;div&gt;&lt;font face=&quot;Courier New&quot;&gt;&lt;span style=&quot;background-color: rgb(18, 18, 18);&quot;&gt;&amp;nbsp; &amp;nbsp; &amp;nbsp; &amp;nbsp; 5,&lt;/span&gt;&lt;/font&gt;&lt;/div&gt;&lt;div&gt;&lt;font face=&quot;Courier New&quot;&gt;&lt;span style=&quot;background-color: rgb(18, 18, 18);&quot;&gt;&amp;nbsp; &amp;nbsp; &amp;nbsp; &amp;nbsp; 6,&lt;/span&gt;&lt;/font&gt;&lt;/div&gt;&lt;div&gt;&lt;font face=&quot;Courier New&quot;&gt;&lt;span style=&quot;background-color: rgb(18, 18, 18);&quot;&gt;&amp;nbsp; &amp;nbsp; &amp;nbsp; &amp;nbsp; 7&lt;/span&gt;&lt;/font&gt;&lt;/div&gt;&lt;div&gt;&lt;font face=&quot;Courier New&quot;&gt;&lt;span style=&quot;background-color: rgb(18, 18, 18);&quot;&gt;)&lt;/span&gt;&lt;/font&gt;&lt;/div&gt;&lt;div&gt;&lt;font face=&quot;Courier New&quot;&gt;&lt;span style=&quot;background-color: rgb(18, 18, 18);&quot;&gt;select&lt;/span&gt;&lt;/font&gt;&lt;/div&gt;&lt;div&gt;&lt;font face=&quot;Courier New&quot;&gt;&lt;span style=&quot;background-color: rgb(18, 18, 18);&quot;&gt;&amp;nbsp; &amp;nbsp; et.album_name,&lt;/span&gt;&lt;/font&gt;&lt;/div&gt;&lt;div&gt;&lt;font face=&quot;Courier New&quot;&gt;&lt;span style=&quot;background-color: rgb(18, 18, 18);&quot;&gt;&amp;nbsp; &amp;nbsp; et.artist_name,&lt;/span&gt;&lt;/font&gt;&lt;/div&gt;&lt;div&gt;&lt;font face=&quot;Courier New&quot;&gt;&lt;span style=&quot;background-color: rgb(18, 18, 18);&quot;&gt;&amp;nbsp; &amp;nbsp; et.track_name,&lt;/span&gt;&lt;/font&gt;&lt;/div&gt;&lt;div&gt;&lt;font face=&quot;Courier New&quot;&gt;&lt;span style=&quot;background-color: rgb(18, 18, 18);&quot;&gt;&amp;nbsp; &amp;nbsp; et.play_count,&lt;/span&gt;&lt;/font&gt;&lt;/div&gt;&lt;div&gt;&lt;font face=&quot;Courier New&quot;&gt;&lt;span style=&quot;background-color: rgb(18, 18, 18);&quot;&gt;&amp;nbsp; &amp;nbsp; tt.position,&lt;/span&gt;&lt;/font&gt;&lt;/div&gt;&lt;div&gt;&lt;font face=&quot;Courier New&quot;&gt;&lt;span style=&quot;background-color: rgb(18, 18, 18);&quot;&gt;&amp;nbsp; &amp;nbsp; et.cover_art,&lt;/span&gt;&lt;/font&gt;&lt;/div&gt;&lt;div&gt;&lt;font face=&quot;Courier New&quot;&gt;&lt;span style=&quot;background-color: rgb(18, 18, 18);&quot;&gt;&amp;nbsp; &amp;nbsp; et.release_date,&lt;/span&gt;&lt;/font&gt;&lt;/div&gt;&lt;div&gt;&lt;font face=&quot;Courier New&quot;&gt;&lt;span style=&quot;background-color: rgb(18, 18, 18);&quot;&gt;&amp;nbsp; &amp;nbsp; tt.top_track_at,&lt;/span&gt;&lt;/font&gt;&lt;/div&gt;&lt;div&gt;&lt;font face=&quot;Courier New&quot;&gt;&lt;span style=&quot;background-color: rgb(18, 18, 18);&quot;&gt;&amp;nbsp; &amp;nbsp; tt.first_added_at,&lt;/span&gt;&lt;/font&gt;&lt;/div&gt;&lt;div&gt;&lt;font face=&quot;Courier New&quot;&gt;&lt;span style=&quot;background-color: rgb(18, 18, 18);&quot;&gt;&amp;nbsp; &amp;nbsp; et.stream_recorded_at&lt;/span&gt;&lt;/font&gt;&lt;/div&gt;&lt;div&gt;&lt;font face=&quot;Courier New&quot;&gt;&lt;span style=&quot;background-color: rgb(18, 18, 18);&quot;&gt;from&lt;/span&gt;&lt;/font&gt;&lt;/div&gt;&lt;div&gt;&lt;font face=&quot;Courier New&quot;&gt;&lt;span style=&quot;background-color: rgb(18, 18, 18);&quot;&gt;&amp;nbsp; &amp;nbsp; enriched_tracks et&amp;nbsp; -- Changed from enriched_tasks to enriched_tracks&lt;/span&gt;&lt;/font&gt;&lt;/div&gt;&lt;div&gt;&lt;font face=&quot;Courier New&quot;&gt;&lt;span style=&quot;background-color: rgb(18, 18, 18);&quot;&gt;left join&lt;/span&gt;&lt;/font&gt;&lt;/div&gt;&lt;div&gt;&lt;font face=&quot;Courier New&quot;&gt;&lt;span style=&quot;background-color: rgb(18, 18, 18);&quot;&gt;&amp;nbsp; &amp;nbsp; top_tracks tt&lt;/span&gt;&lt;/font&gt;&lt;/div&gt;&lt;div&gt;&lt;font face=&quot;Courier New&quot;&gt;&lt;span style=&quot;background-color: rgb(18, 18, 18);&quot;&gt;on&lt;/span&gt;&lt;/font&gt;&lt;/div&gt;&lt;div&gt;&lt;font face=&quot;Courier New&quot;&gt;&lt;span style=&quot;background-color: rgb(18, 18, 18);&quot;&gt;&amp;nbsp; &amp;nbsp; et.track_id = tt.track_id and&lt;/span&gt;&lt;/font&gt;&lt;/div&gt;&lt;div&gt;&lt;font&gt;&lt;span style=&quot;color: rgb(255, 242, 242);&quot;&gt;&lt;font face=&quot;Courier New&quot;&gt;&lt;span style=&quot;background-color: rgb(18, 18, 18);&quot;&gt;&amp;nbsp; &amp;nbsp; et.stream_recorded_at = tt.top_track_at;&lt;/span&gt;&lt;/font&gt;&lt;font size=&quot;2&quot; face=&quot;Courier New&quot; color=&quot;#fff2f2&quot;&gt;&amp;nbsp;&lt;/font&gt;&lt;/span&gt;&lt;/font&gt;&lt;/div&gt;" style="rounded=0;whiteSpace=wrap;html=1;align=left;" vertex="1" parent="1">
          <mxGeometry x="-1740" y="1100" width="580" height="1020" as="geometry" />
        </mxCell>
        <mxCell id="_PHVv9r6wHCgCaR1bIUu-56" value="&lt;font&gt;&lt;font style=&quot;color: rgb(255, 255, 255); font-family: &amp;quot;Courier New&amp;quot;; font-size: small;&quot;&gt;&lt;b&gt;Check Album Existence&lt;/b&gt;&lt;br&gt;&lt;br&gt;SELECT&lt;/font&gt;&lt;span style=&quot;color: rgb(255, 255, 255); font-family: &amp;quot;Courier New&amp;quot;; font-size: small;&quot;&gt;&amp;nbsp;album_id&amp;nbsp;&lt;/span&gt;&lt;br style=&quot;font-family: &amp;quot;Courier New&amp;quot;; font-size: small;&quot;&gt;&lt;font style=&quot;color: rgb(255, 255, 255); font-family: &amp;quot;Courier New&amp;quot;; font-size: small;&quot;&gt;FROM&lt;/font&gt;&lt;span style=&quot;color: rgb(255, 255, 255); font-family: &amp;quot;Courier New&amp;quot;; font-size: small;&quot;&gt;&amp;nbsp;&amp;nbsp;&amp;nbsp;&lt;/span&gt;&lt;font style=&quot;color: rgb(255, 255, 255); font-family: &amp;quot;Courier New&amp;quot;; font-size: small;&quot;&gt;albums&lt;/font&gt;&lt;span style=&quot;font-family: &amp;quot;Courier New&amp;quot;; font-size: small;&quot;&gt;&lt;/span&gt;&lt;br style=&quot;font-family: &amp;quot;Courier New&amp;quot;; font-size: small;&quot;&gt;&lt;font style=&quot;color: rgb(255, 255, 255); font-family: &amp;quot;Courier New&amp;quot;; font-size: small;&quot;&gt;WHERE&lt;/font&gt;&lt;span style=&quot;color: rgb(255, 255, 255); font-family: &amp;quot;Courier New&amp;quot;; font-size: small;&quot;&gt;&amp;nbsp;&amp;nbsp;&lt;/span&gt;&lt;font style=&quot;color: rgb(255, 255, 255); font-family: &amp;quot;Courier New&amp;quot;; font-size: small;&quot;&gt;album_id&lt;/font&gt;&lt;span style=&quot;color: rgb(255, 255, 255); font-family: &amp;quot;Courier New&amp;quot;; font-size: small;&quot;&gt;&amp;nbsp;=&lt;/span&gt;&lt;span style=&quot;color: rgb(255, 255, 255); font-family: &amp;quot;Courier New&amp;quot;; font-size: small;&quot;&gt;&amp;nbsp;&lt;/span&gt;&lt;font style=&quot;font-family: &amp;quot;Courier New&amp;quot;; font-size: small;&quot;&gt;&#39;&lt;span style=&quot;font-size: 14px;&quot;&gt;&lt;font style=&quot;color: rgb(255, 255, 255);&quot;&gt;007DWn799UWvfY1wwZeENR&lt;/font&gt;&lt;/span&gt;&lt;span style=&quot;color: rgb(255, 255, 255); background-color: transparent;&quot;&gt;&#39;&lt;/span&gt;&lt;br&gt;&lt;/font&gt;&lt;font style=&quot;color: rgb(255, 255, 255); font-family: &amp;quot;Courier New&amp;quot;; font-size: small;&quot;&gt;LIMIT&lt;/font&gt;&lt;span style=&quot;color: rgb(255, 255, 255); font-family: &amp;quot;Courier New&amp;quot;; font-size: small;&quot;&gt;&amp;nbsp;&amp;nbsp;&lt;/span&gt;&lt;font style=&quot;color: rgb(255, 255, 255); font-family: &amp;quot;Courier New&amp;quot;; font-size: small;&quot;&gt;10&lt;/font&gt;&lt;font style=&quot;color: rgb(255, 255, 255); font-family: &amp;quot;Courier New&amp;quot;; font-size: small;&quot;&gt;;&lt;/font&gt;&lt;/font&gt;" style="rounded=0;whiteSpace=wrap;html=1;align=left;" vertex="1" parent="1">
          <mxGeometry x="-1740" y="180" width="580" height="150" as="geometry" />
        </mxCell>
        <mxCell id="_PHVv9r6wHCgCaR1bIUu-57" value="&lt;font&gt;&lt;font style=&quot;font-family: &amp;quot;Courier New&amp;quot;; font-size: small;&quot;&gt;&lt;b style=&quot;color: rgb(255, 255, 255);&quot;&gt;Insert Album&lt;/b&gt;&lt;br&gt;&lt;br&gt;&lt;div style=&quot;font-family: Menlo, Monaco, &amp;quot;Courier New&amp;quot;, monospace; font-size: 12px; line-height: 18px; white-space: pre;&quot;&gt;&lt;div style=&quot;&quot;&gt;&lt;span&gt;&lt;font style=&quot;color: rgb(255, 255, 255);&quot;&gt;INSERT INTO albums (&lt;/font&gt;&lt;/span&gt;&lt;/div&gt;&lt;div style=&quot;&quot;&gt;&lt;span&gt;&lt;font style=&quot;color: rgb(255, 255, 255);&quot;&gt;&lt;span style=&quot;white-space: pre;&quot;&gt;&#x9;&lt;/span&gt;album_id, &lt;/font&gt;&lt;/span&gt;&lt;/div&gt;&lt;div style=&quot;&quot;&gt;&lt;span&gt;&lt;font style=&quot;color: rgb(255, 255, 255);&quot;&gt;&lt;span style=&quot;white-space: pre;&quot;&gt;&#x9;&lt;/span&gt;artist_id, &lt;/font&gt;&lt;/span&gt;&lt;/div&gt;&lt;div style=&quot;&quot;&gt;&lt;span&gt;&lt;font style=&quot;color: rgb(255, 255, 255);&quot;&gt;&lt;span style=&quot;white-space: pre;&quot;&gt;&#x9;&lt;/span&gt;name, &lt;/font&gt;&lt;/span&gt;&lt;/div&gt;&lt;div style=&quot;&quot;&gt;&lt;span&gt;&lt;font style=&quot;color: rgb(255, 255, 255);&quot;&gt;&lt;span style=&quot;white-space: pre;&quot;&gt;&#x9;&lt;/span&gt;cover_art, &lt;/font&gt;&lt;/span&gt;&lt;/div&gt;&lt;div style=&quot;&quot;&gt;&lt;span&gt;&lt;font style=&quot;color: rgb(255, 255, 255);&quot;&gt;&lt;span style=&quot;white-space: pre;&quot;&gt;&#x9;&lt;/span&gt;release_date, &lt;/font&gt;&lt;/span&gt;&lt;/div&gt;&lt;div style=&quot;&quot;&gt;&lt;span&gt;&lt;font style=&quot;color: rgb(255, 255, 255);&quot;&gt;&lt;span style=&quot;white-space: pre;&quot;&gt;&#x9;&lt;/span&gt;artist_name&lt;/font&gt;&lt;/span&gt;&lt;/div&gt;&lt;div style=&quot;&quot;&gt;&lt;span style=&quot;background-color: transparent;&quot;&gt;)&lt;/span&gt;&lt;/div&gt;&lt;div style=&quot;&quot;&gt;&lt;span&gt;&lt;font style=&quot;color: rgb(255, 255, 255);&quot;&gt;VALUES (&lt;/font&gt;&lt;/span&gt;&lt;/div&gt;&lt;div style=&quot;&quot;&gt;&lt;span&gt;&lt;font style=&quot;color: rgb(255, 255, 255);&quot;&gt;&lt;span style=&quot;white-space: pre;&quot;&gt;&#x9;&lt;/span&gt;$1, &lt;/font&gt;&lt;/span&gt;&lt;/div&gt;&lt;div style=&quot;&quot;&gt;&lt;span&gt;&lt;font style=&quot;color: rgb(255, 255, 255);&quot;&gt;&lt;span style=&quot;white-space: pre;&quot;&gt;&#x9;&lt;/span&gt;$2, &lt;/font&gt;&lt;/span&gt;&lt;/div&gt;&lt;div style=&quot;&quot;&gt;&lt;span&gt;&lt;font style=&quot;color: rgb(255, 255, 255);&quot;&gt;&lt;span style=&quot;white-space: pre;&quot;&gt;&#x9;&lt;/span&gt;$3, &lt;/font&gt;&lt;/span&gt;&lt;/div&gt;&lt;div style=&quot;&quot;&gt;&lt;span&gt;&lt;font style=&quot;color: rgb(255, 255, 255);&quot;&gt;&lt;span style=&quot;white-space: pre;&quot;&gt;&#x9;&lt;/span&gt;$4, &lt;/font&gt;&lt;/span&gt;&lt;/div&gt;&lt;div style=&quot;&quot;&gt;&lt;span&gt;&lt;font style=&quot;color: rgb(255, 255, 255);&quot;&gt;&lt;span style=&quot;white-space: pre;&quot;&gt;&#x9;&lt;/span&gt;$5, &lt;/font&gt;&lt;/span&gt;&lt;/div&gt;&lt;div style=&quot;&quot;&gt;&lt;span&gt;&lt;font style=&quot;color: rgb(255, 255, 255);&quot;&gt;&lt;span style=&quot;white-space: pre;&quot;&gt;&#x9;&lt;/span&gt;$6&lt;/font&gt;&lt;/span&gt;&lt;/div&gt;&lt;div style=&quot;&quot;&gt;&lt;span&gt;&lt;font style=&quot;color: rgb(255, 255, 255);&quot;&gt;)&lt;/font&gt;&lt;/span&gt;&lt;/div&gt;&lt;div style=&quot;&quot;&gt;&lt;span&gt;&lt;font style=&quot;color: rgb(255, 255, 255);&quot;&gt;ON CONFLICT (&lt;/font&gt;&lt;/span&gt;&lt;/div&gt;&lt;div style=&quot;&quot;&gt;&lt;span&gt;&lt;font style=&quot;color: rgb(255, 255, 255);&quot;&gt;&lt;span style=&quot;white-space: pre;&quot;&gt;&#x9;&lt;/span&gt;album_id&lt;/font&gt;&lt;/span&gt;&lt;/div&gt;&lt;div style=&quot;&quot;&gt;&lt;span&gt;&lt;font style=&quot;color: rgb(255, 255, 255);&quot;&gt;) &lt;/font&gt;&lt;/span&gt;&lt;/div&gt;&lt;div style=&quot;&quot;&gt;&lt;span&gt;&lt;font style=&quot;color: rgb(255, 255, 255);&quot;&gt;DO UPDATE &lt;/font&gt;&lt;/span&gt;&lt;span style=&quot;background-color: transparent;&quot;&gt;SET &lt;/span&gt;&lt;/div&gt;&lt;div style=&quot;&quot;&gt;&lt;span style=&quot;background-color: transparent;&quot;&gt;&lt;span style=&quot;white-space: pre;&quot;&gt;&#x9;&lt;/span&gt;artist_id = $2, &lt;/span&gt;&lt;/div&gt;&lt;div style=&quot;&quot;&gt;&lt;span style=&quot;background-color: transparent;&quot;&gt;&lt;span style=&quot;white-space: pre;&quot;&gt;&#x9;&lt;/span&gt;name = $3, &lt;/span&gt;&lt;/div&gt;&lt;div style=&quot;&quot;&gt;&lt;span style=&quot;background-color: transparent;&quot;&gt;&lt;span style=&quot;white-space: pre;&quot;&gt;&#x9;&lt;/span&gt;cover_art = $4, &lt;/span&gt;&lt;/div&gt;&lt;div style=&quot;&quot;&gt;&lt;span style=&quot;background-color: transparent;&quot;&gt;&lt;span style=&quot;white-space: pre;&quot;&gt;&#x9;&lt;/span&gt;release_date = $5, &lt;/span&gt;&lt;/div&gt;&lt;div style=&quot;&quot;&gt;&lt;span style=&quot;background-color: transparent;&quot;&gt;&lt;span style=&quot;white-space: pre;&quot;&gt;&#x9;&lt;/span&gt;artist_name = $6&lt;/span&gt;&lt;/div&gt;&lt;/div&gt;&lt;/font&gt;&lt;/font&gt;" style="rounded=0;whiteSpace=wrap;html=1;align=left;" vertex="1" parent="1">
          <mxGeometry x="-2390" y="-420" width="580" height="510" as="geometry" />
        </mxCell>
        <mxCell id="_PHVv9r6wHCgCaR1bIUu-58" value="&lt;font&gt;&lt;font style=&quot;font-family: &amp;quot;Courier New&amp;quot;; font-size: small;&quot;&gt;&lt;b style=&quot;color: rgb(255, 255, 255);&quot;&gt;Insert Track&lt;/b&gt;&lt;br&gt;&lt;br&gt;&lt;div style=&quot;font-family: Menlo, Monaco, &amp;quot;Courier New&amp;quot;, monospace; font-size: 12px; line-height: 18px; white-space: pre;&quot;&gt;&lt;div style=&quot;&quot;&gt;&lt;span&gt;&lt;font style=&quot;color: rgb(255, 255, 255);&quot;&gt;INSERT INTO tracks (&lt;/font&gt;&lt;/span&gt;&lt;/div&gt;&lt;div style=&quot;&quot;&gt;&lt;span&gt;&lt;font style=&quot;color: rgb(255, 255, 255);&quot;&gt;&lt;span style=&quot;white-space: pre;&quot;&gt;&#x9;&lt;/span&gt;track_id, &lt;/font&gt;&lt;/span&gt;&lt;/div&gt;&lt;div style=&quot;&quot;&gt;&lt;span&gt;&lt;font style=&quot;color: rgb(255, 255, 255);&quot;&gt;&lt;span style=&quot;white-space: pre;&quot;&gt;&#x9;&lt;/span&gt;name, &lt;/font&gt;&lt;/span&gt;&lt;/div&gt;&lt;div style=&quot;&quot;&gt;&lt;span&gt;&lt;font style=&quot;color: rgb(255, 255, 255);&quot;&gt;&lt;span style=&quot;white-space: pre;&quot;&gt;&#x9;&lt;/span&gt;artist_id, &lt;/font&gt;&lt;/span&gt;&lt;/div&gt;&lt;div style=&quot;&quot;&gt;&lt;span&gt;&lt;font style=&quot;color: rgb(255, 255, 255);&quot;&gt;&lt;span style=&quot;white-space: pre;&quot;&gt;&#x9;&lt;/span&gt;album_id&lt;/font&gt;&lt;/span&gt;&lt;/div&gt;&lt;div style=&quot;&quot;&gt;&lt;span style=&quot;background-color: transparent;&quot;&gt;)&lt;/span&gt;&lt;/div&gt;&lt;div style=&quot;&quot;&gt;&lt;span&gt;&lt;font style=&quot;color: rgb(255, 255, 255);&quot;&gt;VALUES (&lt;/font&gt;&lt;/span&gt;&lt;/div&gt;&lt;div style=&quot;&quot;&gt;&lt;span&gt;&lt;font style=&quot;color: rgb(255, 255, 255);&quot;&gt;&lt;span style=&quot;white-space: pre;&quot;&gt;&#x9;&lt;/span&gt;$1, &lt;/font&gt;&lt;/span&gt;&lt;/div&gt;&lt;div style=&quot;&quot;&gt;&lt;span&gt;&lt;font style=&quot;color: rgb(255, 255, 255);&quot;&gt;&lt;span style=&quot;white-space: pre;&quot;&gt;&#x9;&lt;/span&gt;$2, &lt;/font&gt;&lt;/span&gt;&lt;/div&gt;&lt;div style=&quot;&quot;&gt;&lt;span&gt;&lt;font style=&quot;color: rgb(255, 255, 255);&quot;&gt;&lt;span style=&quot;white-space: pre;&quot;&gt;&#x9;&lt;/span&gt;$3, &lt;/font&gt;&lt;/span&gt;&lt;/div&gt;&lt;div style=&quot;&quot;&gt;&lt;span&gt;&lt;font style=&quot;color: rgb(255, 255, 255);&quot;&gt;&lt;span style=&quot;white-space: pre;&quot;&gt;&#x9;&lt;/span&gt;$4&lt;/font&gt;&lt;/span&gt;&lt;/div&gt;&lt;div style=&quot;&quot;&gt;&lt;span&gt;&lt;font style=&quot;color: rgb(255, 255, 255);&quot;&gt;)&lt;/font&gt;&lt;/span&gt;&lt;/div&gt;&lt;div style=&quot;&quot;&gt;&lt;span&gt;&lt;font style=&quot;color: rgb(255, 255, 255);&quot;&gt;ON CONFLICT (&lt;/font&gt;&lt;/span&gt;&lt;/div&gt;&lt;div style=&quot;&quot;&gt;&lt;span&gt;&lt;font style=&quot;color: rgb(255, 255, 255);&quot;&gt;&lt;span style=&quot;white-space: pre;&quot;&gt;&#x9;&lt;/span&gt;track_id&lt;/font&gt;&lt;/span&gt;&lt;/div&gt;&lt;div style=&quot;&quot;&gt;&lt;span&gt;&lt;font style=&quot;color: rgb(255, 255, 255);&quot;&gt;) &lt;/font&gt;&lt;/span&gt;&lt;/div&gt;&lt;div style=&quot;&quot;&gt;&lt;span&gt;&lt;font style=&quot;color: rgb(255, 255, 255);&quot;&gt;DO UPDATE &lt;/font&gt;&lt;/span&gt;&lt;/div&gt;&lt;div style=&quot;&quot;&gt;&lt;span&gt;&lt;font style=&quot;color: rgb(255, 255, 255);&quot;&gt;SET &lt;/font&gt;&lt;/span&gt;&lt;/div&gt;&lt;div style=&quot;&quot;&gt;&lt;span&gt;&lt;font style=&quot;color: rgb(255, 255, 255);&quot;&gt;&lt;span style=&quot;white-space: pre;&quot;&gt;&#x9;&lt;/span&gt;name = $2, &lt;/font&gt;&lt;/span&gt;&lt;/div&gt;&lt;div style=&quot;&quot;&gt;&lt;span&gt;&lt;font style=&quot;color: rgb(255, 255, 255);&quot;&gt;&lt;span style=&quot;white-space: pre;&quot;&gt;&#x9;&lt;/span&gt;artist_id = $3, &lt;/font&gt;&lt;/span&gt;&lt;/div&gt;&lt;div style=&quot;&quot;&gt;&lt;span&gt;&lt;font style=&quot;color: rgb(255, 255, 255);&quot;&gt;&lt;span style=&quot;white-space: pre;&quot;&gt;&#x9;&lt;/span&gt;album_id = $4&lt;/font&gt;&lt;/span&gt;&lt;/div&gt;&lt;/div&gt;&lt;/font&gt;&lt;/font&gt;" style="rounded=0;whiteSpace=wrap;html=1;align=left;" vertex="1" parent="1">
          <mxGeometry x="-2390" y="110" width="580" height="450" as="geometry" />
        </mxCell>
        <mxCell id="_PHVv9r6wHCgCaR1bIUu-59" value="&lt;font&gt;&lt;font style=&quot;font-family: &amp;quot;Courier New&amp;quot;; font-size: small;&quot;&gt;&lt;b style=&quot;color: rgb(255, 255, 255);&quot;&gt;Insert Stream&lt;/b&gt;&lt;br&gt;&lt;br&gt;&lt;div style=&quot;font-family: Menlo, Monaco, &amp;quot;Courier New&amp;quot;, monospace; font-size: 12px; line-height: 18px; white-space: pre;&quot;&gt;&lt;div style=&quot;&quot;&gt;&lt;span&gt;&lt;font style=&quot;color: rgb(255, 255, 255);&quot;&gt;INSERT INTO streams (&lt;/font&gt;&lt;/span&gt;&lt;/div&gt;&lt;div style=&quot;&quot;&gt;&lt;span&gt;&lt;font style=&quot;color: rgb(255, 255, 255);&quot;&gt;&lt;span style=&quot;white-space: pre;&quot;&gt;&#x9;&lt;/span&gt;track_id, &lt;/font&gt;&lt;/span&gt;&lt;/div&gt;&lt;div style=&quot;&quot;&gt;&lt;span&gt;&lt;font style=&quot;color: rgb(255, 255, 255);&quot;&gt;&lt;span style=&quot;white-space: pre;&quot;&gt;&#x9;&lt;/span&gt;play_count, &lt;/font&gt;&lt;/span&gt;&lt;/div&gt;&lt;div style=&quot;&quot;&gt;&lt;span&gt;&lt;font style=&quot;color: rgb(255, 255, 255);&quot;&gt;&lt;span style=&quot;white-space: pre;&quot;&gt;&#x9;&lt;/span&gt;album_id&lt;/font&gt;&lt;/span&gt;&lt;/div&gt;&lt;div style=&quot;&quot;&gt;&lt;span style=&quot;background-color: transparent;&quot;&gt;)&lt;/span&gt;&lt;/div&gt;&lt;div style=&quot;&quot;&gt;&lt;span&gt;&lt;font style=&quot;color: rgb(255, 255, 255);&quot;&gt;VALUES (&lt;/font&gt;&lt;/span&gt;&lt;/div&gt;&lt;div style=&quot;&quot;&gt;&lt;span&gt;&lt;font style=&quot;color: rgb(255, 255, 255);&quot;&gt;&lt;span style=&quot;white-space: pre;&quot;&gt;&#x9;&lt;/span&gt;$1, &lt;/font&gt;&lt;/span&gt;&lt;/div&gt;&lt;div style=&quot;&quot;&gt;&lt;span&gt;&lt;font style=&quot;color: rgb(255, 255, 255);&quot;&gt;&lt;span style=&quot;white-space: pre;&quot;&gt;&#x9;&lt;/span&gt;$2, &lt;/font&gt;&lt;/span&gt;&lt;/div&gt;&lt;div style=&quot;&quot;&gt;&lt;span&gt;&lt;font style=&quot;color: rgb(255, 255, 255);&quot;&gt;&lt;span style=&quot;white-space: pre;&quot;&gt;&#x9;&lt;/span&gt;$3&lt;/font&gt;&lt;/span&gt;&lt;/div&gt;&lt;div style=&quot;&quot;&gt;&lt;span&gt;&lt;font style=&quot;color: rgb(255, 255, 255);&quot;&gt;)&lt;/font&gt;&lt;/span&gt;&lt;/div&gt;&lt;div style=&quot;&quot;&gt;&lt;span&gt;&lt;font style=&quot;color: rgb(255, 255, 255);&quot;&gt;ON CONFLICT (&lt;/font&gt;&lt;/span&gt;&lt;/div&gt;&lt;div style=&quot;&quot;&gt;&lt;span&gt;&lt;font style=&quot;color: rgb(255, 255, 255);&quot;&gt;&lt;span style=&quot;white-space: pre;&quot;&gt;&#x9;&lt;/span&gt;track_id, &lt;/font&gt;&lt;/span&gt;&lt;/div&gt;&lt;div style=&quot;&quot;&gt;&lt;span&gt;&lt;font style=&quot;color: rgb(255, 255, 255);&quot;&gt;&lt;span style=&quot;white-space: pre;&quot;&gt;&#x9;&lt;/span&gt;play_count, &lt;/font&gt;&lt;/span&gt;&lt;/div&gt;&lt;div style=&quot;&quot;&gt;&lt;span&gt;&lt;font style=&quot;color: rgb(255, 255, 255);&quot;&gt;&lt;span style=&quot;white-space: pre;&quot;&gt;&#x9;&lt;/span&gt;album_id&lt;/font&gt;&lt;/span&gt;&lt;/div&gt;&lt;div style=&quot;&quot;&gt;&lt;span style=&quot;background-color: transparent;&quot;&gt;) &lt;/span&gt;&lt;/div&gt;&lt;div style=&quot;&quot;&gt;&lt;span style=&quot;background-color: transparent;&quot;&gt;DO NOTHING&lt;/span&gt;&lt;/div&gt;&lt;/div&gt;&lt;/font&gt;&lt;/font&gt;" style="rounded=0;whiteSpace=wrap;html=1;align=left;" vertex="1" parent="1">
          <mxGeometry x="-2390" y="590" width="580" height="370" as="geometry" />
        </mxCell>
        <mxCell id="_PHVv9r6wHCgCaR1bIUu-60" value="&lt;font&gt;&lt;font style=&quot;font-family: &amp;quot;Courier New&amp;quot;; font-size: small;&quot;&gt;&lt;b style=&quot;color: rgb(255, 255, 255);&quot;&gt;Insert User Top Track&lt;/b&gt;&lt;br&gt;&lt;br&gt;&lt;div style=&quot;font-family: Menlo, Monaco, &amp;quot;Courier New&amp;quot;, monospace; font-size: 12px; line-height: 18px; white-space: pre;&quot;&gt;&lt;div style=&quot;&quot;&gt;&lt;span&gt;&lt;font style=&quot;color: rgb(255, 255, 255);&quot;&gt;INSERT INTO user_top_tracks (&lt;/font&gt;&lt;/span&gt;&lt;/div&gt;&lt;div style=&quot;&quot;&gt;&lt;span&gt;&lt;font style=&quot;color: rgb(255, 255, 255);&quot;&gt;&lt;span style=&quot;white-space: pre;&quot;&gt;&#x9;&lt;/span&gt;user_id, &lt;/font&gt;&lt;/span&gt;&lt;/div&gt;&lt;div style=&quot;&quot;&gt;&lt;span&gt;&lt;font style=&quot;color: rgb(255, 255, 255);&quot;&gt;&lt;span style=&quot;white-space: pre;&quot;&gt;&#x9;&lt;/span&gt;track_id, &lt;/font&gt;&lt;/span&gt;&lt;/div&gt;&lt;div style=&quot;&quot;&gt;&lt;span&gt;&lt;font style=&quot;color: rgb(255, 255, 255);&quot;&gt;&lt;span style=&quot;white-space: pre;&quot;&gt;&#x9;&lt;/span&gt;position&lt;/font&gt;&lt;/span&gt;&lt;/div&gt;&lt;div style=&quot;&quot;&gt;&lt;span&gt;&lt;font style=&quot;color: rgb(255, 255, 255);&quot;&gt;)&lt;/font&gt;&lt;/span&gt;&lt;/div&gt;&lt;div style=&quot;&quot;&gt;&lt;span&gt;&lt;font style=&quot;color: rgb(255, 255, 255);&quot;&gt;VALUES (&lt;/font&gt;&lt;/span&gt;&lt;/div&gt;&lt;div style=&quot;&quot;&gt;&lt;span&gt;&lt;font style=&quot;color: rgb(255, 255, 255);&quot;&gt;&lt;span style=&quot;white-space: pre;&quot;&gt;&#x9;&lt;/span&gt;$1, &lt;/font&gt;&lt;/span&gt;&lt;/div&gt;&lt;div style=&quot;&quot;&gt;&lt;span&gt;&lt;font style=&quot;color: rgb(255, 255, 255);&quot;&gt;&lt;span style=&quot;white-space: pre;&quot;&gt;&#x9;&lt;/span&gt;$2, &lt;/font&gt;&lt;/span&gt;&lt;/div&gt;&lt;div style=&quot;&quot;&gt;&lt;span&gt;&lt;font style=&quot;color: rgb(255, 255, 255);&quot;&gt;&lt;span style=&quot;white-space: pre;&quot;&gt;&#x9;&lt;/span&gt;$3&lt;/font&gt;&lt;/span&gt;&lt;/div&gt;&lt;div style=&quot;&quot;&gt;&lt;span&gt;&lt;font style=&quot;color: rgb(255, 255, 255);&quot;&gt;)&lt;/font&gt;&lt;/span&gt;&lt;/div&gt;&lt;/div&gt;&lt;/font&gt;&lt;/font&gt;" style="rounded=0;whiteSpace=wrap;html=1;align=left;" vertex="1" parent="1">
          <mxGeometry x="-2390" y="1040" width="580" height="260" as="geometry" />
        </mxCell>
        <mxCell id="_PHVv9r6wHCgCaR1bIUu-64" value="" style="edgeStyle=orthogonalEdgeStyle;rounded=0;orthogonalLoop=1;jettySize=auto;html=1;" edge="1" parent="1" source="_PHVv9r6wHCgCaR1bIUu-61" target="_PHVv9r6wHCgCaR1bIUu-63">
          <mxGeometry relative="1" as="geometry" />
        </mxCell>
        <mxCell id="_PHVv9r6wHCgCaR1bIUu-61" value="check if official&amp;nbsp;&lt;div&gt;spotify connection works&lt;/div&gt;" style="whiteSpace=wrap;html=1;" vertex="1" parent="1">
          <mxGeometry x="-40" y="400" width="120" height="60" as="geometry" />
        </mxCell>
        <mxCell id="_PHVv9r6wHCgCaR1bIUu-66" value="" style="edgeStyle=orthogonalEdgeStyle;rounded=0;orthogonalLoop=1;jettySize=auto;html=1;" edge="1" parent="1" source="_PHVv9r6wHCgCaR1bIUu-63" target="_PHVv9r6wHCgCaR1bIUu-65">
          <mxGeometry relative="1" as="geometry" />
        </mxCell>
        <mxCell id="_PHVv9r6wHCgCaR1bIUu-63" value="check if cockroach db&lt;span style=&quot;background-color: transparent; color: light-dark(rgb(0, 0, 0), rgb(255, 255, 255));&quot;&gt;&amp;nbsp;connection works&lt;/span&gt;" style="whiteSpace=wrap;html=1;" vertex="1" parent="1">
          <mxGeometry x="-40" y="540" width="120" height="60" as="geometry" />
        </mxCell>
        <mxCell id="_PHVv9r6wHCgCaR1bIUu-78" value="" style="edgeStyle=orthogonalEdgeStyle;rounded=0;orthogonalLoop=1;jettySize=auto;html=1;" edge="1" parent="1" source="_PHVv9r6wHCgCaR1bIUu-65" target="_PHVv9r6wHCgCaR1bIUu-77">
          <mxGeometry relative="1" as="geometry" />
        </mxCell>
        <mxCell id="_PHVv9r6wHCgCaR1bIUu-65" value="check if we can fetch user tokens using unofficial spotify" style="whiteSpace=wrap;html=1;" vertex="1" parent="1">
          <mxGeometry x="-40" y="680" width="120" height="60" as="geometry" />
        </mxCell>
        <mxCell id="_PHVv9r6wHCgCaR1bIUu-72" value="" style="edgeStyle=orthogonalEdgeStyle;rounded=0;orthogonalLoop=1;jettySize=auto;html=1;" edge="1" parent="1" source="_PHVv9r6wHCgCaR1bIUu-67" target="_PHVv9r6wHCgCaR1bIUu-71">
          <mxGeometry relative="1" as="geometry" />
        </mxCell>
        <mxCell id="_PHVv9r6wHCgCaR1bIUu-67" value="query data" style="whiteSpace=wrap;html=1;" vertex="1" parent="1">
          <mxGeometry x="-250" y="420" width="120" height="60" as="geometry" />
        </mxCell>
        <mxCell id="_PHVv9r6wHCgCaR1bIUu-74" value="" style="edgeStyle=orthogonalEdgeStyle;rounded=0;orthogonalLoop=1;jettySize=auto;html=1;" edge="1" parent="1" source="_PHVv9r6wHCgCaR1bIUu-69" target="_PHVv9r6wHCgCaR1bIUu-73">
          <mxGeometry relative="1" as="geometry" />
        </mxCell>
        <mxCell id="_PHVv9r6wHCgCaR1bIUu-69" value="query data" style="whiteSpace=wrap;html=1;" vertex="1" parent="1">
          <mxGeometry x="170" y="420" width="120" height="60" as="geometry" />
        </mxCell>
        <mxCell id="_PHVv9r6wHCgCaR1bIUu-71" value="return query data" style="whiteSpace=wrap;html=1;" vertex="1" parent="1">
          <mxGeometry x="-250" y="560" width="120" height="60" as="geometry" />
        </mxCell>
        <mxCell id="_PHVv9r6wHCgCaR1bIUu-73" value="return query data" style="whiteSpace=wrap;html=1;" vertex="1" parent="1">
          <mxGeometry x="170" y="560" width="120" height="60" as="geometry" />
        </mxCell>
        <mxCell id="_PHVv9r6wHCgCaR1bIUu-75" value="return query data" style="whiteSpace=wrap;html=1;" vertex="1" parent="1">
          <mxGeometry x="380" y="740" width="120" height="60" as="geometry" />
        </mxCell>
        <mxCell id="_PHVv9r6wHCgCaR1bIUu-80" value="" style="edgeStyle=orthogonalEdgeStyle;rounded=0;orthogonalLoop=1;jettySize=auto;html=1;" edge="1" parent="1" source="_PHVv9r6wHCgCaR1bIUu-77" target="_PHVv9r6wHCgCaR1bIUu-79">
          <mxGeometry relative="1" as="geometry" />
        </mxCell>
        <mxCell id="_PHVv9r6wHCgCaR1bIUu-77" value="check active and recently completed tasks in celery&amp;nbsp;" style="whiteSpace=wrap;html=1;" vertex="1" parent="1">
          <mxGeometry x="-40" y="820" width="120" height="60" as="geometry" />
        </mxCell>
        <mxCell id="_PHVv9r6wHCgCaR1bIUu-79" value="return status check data" style="whiteSpace=wrap;html=1;" vertex="1" parent="1">
          <mxGeometry x="-40" y="960" width="120" height="60" as="geometry" />
        </mxCell>
        <mxCell id="_PHVv9r6wHCgCaR1bIUu-81" value="leverage queried&amp;nbsp;&lt;div&gt;&amp;nbsp;data directly (no need for any aggs)&lt;/div&gt;" style="whiteSpace=wrap;html=1;" vertex="1" parent="1">
          <mxGeometry x="970" y="420" width="120" height="60" as="geometry" />
        </mxCell>
        <mxCell id="_PHVv9r6wHCgCaR1bIUu-86" value="" style="edgeStyle=orthogonalEdgeStyle;rounded=0;orthogonalLoop=1;jettySize=auto;html=1;" edge="1" parent="1" source="_PHVv9r6wHCgCaR1bIUu-83" target="_PHVv9r6wHCgCaR1bIUu-85">
          <mxGeometry relative="1" as="geometry" />
        </mxCell>
        <mxCell id="_PHVv9r6wHCgCaR1bIUu-83" value="group by album_name, artist_name, cover_art, release_date to generate album profile" style="whiteSpace=wrap;html=1;" vertex="1" parent="1">
          <mxGeometry x="770" y="420" width="120" height="140" as="geometry" />
        </mxCell>
        <mxCell id="_PHVv9r6wHCgCaR1bIUu-85" value="group by track_id, track_name&amp;nbsp;&lt;br&gt;filter by stream_recorded_at is between current date - 7 days and current date&lt;div&gt;agg by max(play_count) as total_streams,&lt;/div&gt;&lt;div&gt;max(stream_recorded_at)&amp;nbsp;&lt;/div&gt;&lt;div&gt;as last_updated_at&lt;/div&gt;" style="whiteSpace=wrap;html=1;" vertex="1" parent="1">
          <mxGeometry x="750" y="620" width="160" height="170" as="geometry" />
        </mxCell>
        <mxCell id="_PHVv9r6wHCgCaR1bIUu-91" value="" style="edgeStyle=orthogonalEdgeStyle;rounded=0;orthogonalLoop=1;jettySize=auto;html=1;" edge="1" parent="1" source="_PHVv9r6wHCgCaR1bIUu-87" target="_PHVv9r6wHCgCaR1bIUu-89">
          <mxGeometry relative="1" as="geometry" />
        </mxCell>
        <mxCell id="_PHVv9r6wHCgCaR1bIUu-93" value="" style="edgeStyle=orthogonalEdgeStyle;rounded=0;orthogonalLoop=1;jettySize=auto;html=1;" edge="1" parent="1" source="_PHVv9r6wHCgCaR1bIUu-87" target="_PHVv9r6wHCgCaR1bIUu-92">
          <mxGeometry relative="1" as="geometry" />
        </mxCell>
        <mxCell id="_PHVv9r6wHCgCaR1bIUu-95" value="" style="edgeStyle=orthogonalEdgeStyle;rounded=0;orthogonalLoop=1;jettySize=auto;html=1;" edge="1" parent="1" source="_PHVv9r6wHCgCaR1bIUu-87" target="_PHVv9r6wHCgCaR1bIUu-94">
          <mxGeometry relative="1" as="geometry" />
        </mxCell>
        <mxCell id="_PHVv9r6wHCgCaR1bIUu-96" value="" style="edgeStyle=orthogonalEdgeStyle;rounded=0;orthogonalLoop=1;jettySize=auto;html=1;" edge="1" parent="1" source="_PHVv9r6wHCgCaR1bIUu-87" target="_PHVv9r6wHCgCaR1bIUu-94">
          <mxGeometry relative="1" as="geometry" />
        </mxCell>
        <mxCell id="_PHVv9r6wHCgCaR1bIUu-87" value="filter by stream_recorded_at between&lt;div&gt;&amp;nbsp;current date - 7 days and current date&lt;div&gt;order by stream_recorded_at,&lt;/div&gt;&lt;/div&gt;&lt;div&gt;track_name&lt;/div&gt;" style="whiteSpace=wrap;html=1;" vertex="1" parent="1">
          <mxGeometry x="1170" y="380" width="120" height="130" as="geometry" />
        </mxCell>
        <mxCell id="_PHVv9r6wHCgCaR1bIUu-89" value="group by track_name, cover_art, artist_name&lt;div&gt;agg by current day playcount and previous day playcount&amp;nbsp; &amp;nbsp;&lt;div&gt;order by&amp;nbsp;&lt;/div&gt;&lt;/div&gt;" style="whiteSpace=wrap;html=1;" vertex="1" parent="1">
          <mxGeometry x="1130" y="550" width="200" height="230" as="geometry" />
        </mxCell>
        <mxCell id="_PHVv9r6wHCgCaR1bIUu-92" value="agg max play_count to get total streams" style="whiteSpace=wrap;html=1;" vertex="1" parent="1">
          <mxGeometry x="1370" y="340" width="120" height="60" as="geometry" />
        </mxCell>
        <mxCell id="_PHVv9r6wHCgCaR1bIUu-99" value="" style="edgeStyle=orthogonalEdgeStyle;rounded=0;orthogonalLoop=1;jettySize=auto;html=1;" edge="1" parent="1" source="_PHVv9r6wHCgCaR1bIUu-94" target="_PHVv9r6wHCgCaR1bIUu-98">
          <mxGeometry relative="1" as="geometry" />
        </mxCell>
        <mxCell id="_PHVv9r6wHCgCaR1bIUu-94" value="filter by stream_recorded_at&amp;nbsp;&lt;div&gt;= current date&amp;nbsp;&lt;/div&gt;&lt;div&gt;order by position&lt;/div&gt;" style="whiteSpace=wrap;html=1;" vertex="1" parent="1">
          <mxGeometry x="1370" y="415" width="120" height="85" as="geometry" />
        </mxCell>
        <mxCell id="_PHVv9r6wHCgCaR1bIUu-98" value="" style="whiteSpace=wrap;html=1;" vertex="1" parent="1">
          <mxGeometry x="1370" y="520" width="120" height="60" as="geometry" />
        </mxCell>
      </root>
    </mxGraphModel>
  </diagram>
</mxfile>
